<svg width="50" height="50" viewBox="0 0 50 50" fill="none" xmlns="http://www.w3.org/2000/svg">
<g clip-path="url(#clip0_3_1449)">
<path d="M43.75 25C43.75 22.5377 43.265 20.0995 42.3227 17.8247C41.3805 15.5498 39.9994 13.4828 38.2583 11.7417C36.5172 10.0006 34.4502 8.61953 32.1753 7.67726C29.9005 6.73498 27.4623 6.25 25 6.25C22.5377 6.25 20.0995 6.73498 17.8247 7.67726C15.5498 8.61953 13.4828 10.0006 11.7417 11.7417C10.0006 13.4828 8.61953 15.5498 7.67726 17.8247C6.73498 20.0995 6.25 22.5377 6.25 25C6.25 27.4623 6.73498 29.9005 7.67726 32.1753C8.61953 34.4502 10.0006 36.5172 11.7417 38.2583C13.4828 39.9994 15.5498 41.3805 17.8247 42.3227C20.0995 43.265 22.5377 43.75 25 43.75C27.4623 43.75 29.9005 43.265 32.1753 42.3227C34.4502 41.3805 36.5172 39.9994 38.2583 38.2583C39.9994 36.5172 41.3805 34.4502 42.3227 32.1753C43.265 29.9005 43.75 27.4623 43.75 25ZM0 25C0 18.3696 2.63392 12.0107 7.32233 7.32233C12.0107 2.63392 18.3696 0 25 0C31.6304 0 37.9893 2.63392 42.6777 7.32233C47.3661 12.0107 50 18.3696 50 25C50 31.6304 47.3661 37.9893 42.6777 42.6777C37.9893 47.3661 31.6304 50 25 50C18.3696 50 12.0107 47.3661 7.32233 42.6777C2.63392 37.9893 0 31.6304 0 25ZM25 32.8125C27.072 32.8125 29.0591 31.9894 30.5243 30.5243C31.9894 29.0591 32.8125 27.072 32.8125 25C32.8125 22.928 31.9894 20.9409 30.5243 19.4757C29.0591 18.0106 27.072 17.1875 25 17.1875C22.928 17.1875 20.9409 18.0106 19.4757 19.4757C18.0106 20.9409 17.1875 22.928 17.1875 25C17.1875 27.072 18.0106 29.0591 19.4757 30.5243C20.9409 31.9894 22.928 32.8125 25 32.8125ZM25 10.9375C28.7296 10.9375 32.3065 12.4191 34.9437 15.0563C37.5809 17.6935 39.0625 21.2704 39.0625 25C39.0625 28.7296 37.5809 32.3065 34.9437 34.9437C32.3065 37.5809 28.7296 39.0625 25 39.0625C21.2704 39.0625 17.6935 37.5809 15.0563 34.9437C12.4191 32.3065 10.9375 28.7296 10.9375 25C10.9375 21.2704 12.4191 17.6935 15.0563 15.0563C17.6935 12.4191 21.2704 10.9375 25 10.9375ZM21.875 25C21.875 24.1712 22.2042 23.3763 22.7903 22.7903C23.3763 22.2042 24.1712 21.875 25 21.875C25.8288 21.875 26.6237 22.2042 27.2097 22.7903C27.7958 23.3763 28.125 24.1712 28.125 25C28.125 25.8288 27.7958 26.6237 27.2097 27.2097C26.6237 27.7958 25.8288 28.125 25 28.125C24.1712 28.125 23.3763 27.7958 22.7903 27.2097C22.2042 26.6237 21.875 25.8288 21.875 25Z" fill="black"/>
</g>
<defs>
<clipPath id="clip0_3_1449">
<rect width="50" height="50" fill="white"/>
</clipPath>
</defs>
</svg>
