<svg width="50" height="50" viewBox="0 0 50 50" fill="none" xmlns="http://www.w3.org/2000/svg">
<g clip-path="url(#clip0_3_1458)">
<path d="M25 14.5833C27.3812 14.5833 29.6562 14.6562 31.8229 14.7999C33.9417 14.9416 35.8854 15.2312 37.6521 15.6749C39.3458 16.0978 40.8187 16.727 42.0667 17.5687C43.2537 18.3697 44.2081 19.47 44.8333 20.7583C45.5125 22.127 45.8333 23.8416 45.8333 25.8958C45.8333 27.9916 45.4396 29.8749 44.6375 31.5353C43.8562 33.1583 42.7917 34.4437 41.4354 35.3853C40.1156 36.302 38.5421 36.7828 36.9354 36.7603C35.875 36.7603 34.9146 36.6187 34.0562 36.3228C33.204 36.0336 32.3865 35.6507 31.6187 35.1812C30.8768 34.7234 30.1507 34.2404 29.4417 33.7333C28.7757 33.251 28.0791 32.8126 27.3562 32.4208C26.636 32.0189 25.8268 31.8033 25.0021 31.7937C24.225 31.7937 23.4396 31.9958 22.6437 32.4187C21.9854 32.7728 21.2896 33.2103 20.5604 33.7312C19.8896 34.2103 19.1646 34.6937 18.3792 35.1791C17.6132 35.6493 16.797 36.0322 15.9458 36.3208C15.0854 36.6166 14.1292 36.7582 13.075 36.7582C11.4652 36.7821 9.88813 36.3021 8.56458 35.3853C7.20833 34.4437 6.14375 33.1562 5.3625 31.5353C4.56041 29.8728 4.16666 27.9937 4.16666 25.8916C4.15833 23.8499 4.47916 22.1374 5.16041 20.7666C5.78634 19.4775 6.74233 18.377 7.93125 17.577C9.18125 16.7374 10.6542 16.1103 12.3479 15.6874C14.2627 15.2228 16.2147 14.9279 18.1812 14.8062C20.3479 14.6583 22.6187 14.5833 25 14.5833Z" stroke="black" stroke-width="4.16667" stroke-linecap="round" stroke-linejoin="round"/>
</g>
<defs>
<clipPath id="clip0_3_1458">
<rect width="50" height="50" fill="white"/>
</clipPath>
</defs>
</svg>
