<svg width="1918" height="1079" viewBox="0 0 1918 1079" fill="none" xmlns="http://www.w3.org/2000/svg">
<path d="M0 373.607V378.044L34.0387 359.977L0 474.521V488.273L40.4539 352.137L0 373.607ZM0 499.956L0.991154 501.825L0 502.352V506.788L6.29031 503.448L0 491.601V499.956Z" fill="#224192" fill-opacity="0.32"/>
<path d="M0 373.607V506.788L32.4193 489.579L25.4969 476.534L66.5868 338.264L0 373.607ZM0 242.072V276.423L12.1202 235.637L0 242.072ZM0.741416 0L0 2.49349V112.235L50.5996 85.3797L43.6771 72.3347L65.1742 0H0.741416Z" fill="#224192" fill-opacity="0.32"/>
<path d="M15.749 235.41L105.066 188.007L98.1436 174.966L139.234 36.6919L49.9165 84.0956L56.839 97.1406L15.749 235.41Z" fill="#224192" fill-opacity="0.32"/>
<path d="M70.2158 338.038L159.533 290.634L152.61 277.593L193.7 139.319L104.387 186.723L111.31 199.768L70.2158 338.038Z" fill="#224192" fill-opacity="0.32"/>
<path d="M124.686 440.665L214.003 393.262L207.081 380.221L248.171 241.951L158.854 289.354L165.776 302.396L124.686 440.665ZM39.0764 0L13.7903 85.0909L13.3298 86.6245L14.083 88.041L19.1714 97.6247L0 107.798V112.235L24.4667 99.248L17.5442 86.207L43.162 0H39.0764Z" fill="#224192" fill-opacity="0.32"/>
<path d="M23.7838 97.9681L30.7063 111.009L0 214.339V228.09L34.4641 112.125L34.9206 110.588L34.1675 109.171L29.083 99.5914L106.686 58.4039L68.257 187.718L67.8004 189.252L68.5535 190.668L73.6381 200.252L0 239.336V243.769L78.9333 201.875L72.0108 188.834L113.101 50.5645L23.7838 97.9681Z" fill="#224192" fill-opacity="0.32"/>
<path d="M167.571 153.191L78.2544 200.595L85.1769 213.636L44.0869 351.906L133.4 304.502L126.481 291.461L167.571 153.191ZM161.152 161.031L122.724 290.345L122.267 291.883L123.02 293.295L128.105 302.879L50.5021 344.067L88.9308 214.752L89.3873 213.215L88.6342 211.802L83.5497 202.218L161.152 161.031Z" fill="#224192" fill-opacity="0.32"/>
<path d="M222.038 255.819L132.721 303.223L139.644 316.264L98.5537 454.534L187.871 407.13L180.948 394.089L222.038 255.819ZM215.623 263.659L177.194 392.973L176.738 394.51L177.487 395.927L182.575 405.507L104.969 446.694L143.398 317.38L143.854 315.843L143.105 314.43L138.016 304.846L215.623 263.659ZM196.307 0L197.802 2.81737L120.199 44.0049L133.275 0H129.19L113.784 51.8444L203.101 4.44068L200.74 0H196.307Z" fill="#224192" fill-opacity="0.32"/>
<path d="M274.499 0L246.891 92.9109L246.434 94.4484L247.183 95.8649L252.272 105.449L174.665 146.632L213.094 17.3179L213.55 15.7843L212.797 14.3678L207.713 4.78407L216.727 0H208.368L202.417 3.16077L209.34 16.2019L168.25 154.472L257.567 107.072L250.645 94.0269L278.588 0H274.499Z" fill="#224192" fill-opacity="0.32"/>
<path d="M346.201 58.3843L256.884 105.788L263.807 118.829L222.717 257.103L312.034 209.699L305.111 196.654L346.201 58.3843ZM339.786 66.2238L301.357 195.538L300.901 197.076L301.654 198.492L306.739 208.076L229.132 249.259L267.561 119.945L268.017 118.412L267.268 116.995L262.183 107.411L339.786 66.2238Z" fill="#224192" fill-opacity="0.32"/>
<path d="M400.672 161.012L311.355 208.415L318.277 221.46L277.188 359.73L366.505 312.327L359.582 299.282L400.672 161.012ZM394.253 168.851L355.824 298.166L355.368 299.703L356.121 301.12L361.205 310.703L283.603 351.891L322.031 222.573L322.488 221.039L321.735 219.623L316.65 210.039L394.253 168.851ZM425.256 0L425.818 1.05749L430.902 10.6412L353.3 51.8288L368.701 0H364.616L346.884 59.6682L436.201 12.2646L429.693 0H425.256Z" fill="#224192" fill-opacity="0.32"/>
<path d="M509.925 0L479.991 100.735L479.535 102.268L480.284 103.685L485.372 113.269L407.766 154.456L446.194 25.1418L446.651 23.6043L445.902 22.1878L440.813 12.604L464.566 0H456.211L435.518 10.9807L442.441 24.0257L401.351 162.296L490.668 114.892L483.745 101.847L514.01 0H509.925Z" fill="#224192" fill-opacity="0.32"/>
<path d="M579.302 66.2044L489.985 113.608L496.911 126.653L455.817 264.923L545.134 217.519L538.212 204.478L579.302 66.2044ZM572.887 74.0478L534.458 203.362L534.001 204.896L534.755 206.312L539.839 215.896L462.236 257.083L500.665 127.769L501.122 126.232L500.369 124.815L495.284 115.231L572.887 74.0478ZM660.385 0L658.625 5.92741L658.169 7.46487L658.918 8.87746L664.003 18.4612L586.4 59.6487L604.128 0H600.042L579.985 67.4882L669.302 20.0845L662.375 7.04344L664.471 0H660.385Z" fill="#224192" fill-opacity="0.32"/>
<path d="M745.352 0L713.093 108.555L712.636 110.092L713.385 111.505L718.474 121.089L640.867 162.276L679.296 32.9617L679.752 31.4282L679.003 30.0078L673.915 20.4279L712.406 0H704.047L668.62 18.8046L675.542 31.8457L634.452 170.116L723.769 122.712L716.847 109.671L749.438 0H745.352ZM151.202 0L139.917 37.976L211.467 0H151.202ZM232.414 0L233.651 2.3335L192.561 140.603L281.878 93.1997L274.956 80.1586L298.779 0H232.414ZM248.85 243.231L338.167 195.827L331.245 182.786L372.335 44.5161L283.018 91.9198L289.94 104.961L248.85 243.231Z" fill="#224192" fill-opacity="0.32"/>
<path d="M303.32 345.858L392.637 298.454L385.711 285.413L426.801 147.143L337.488 194.547L344.41 207.588L303.32 345.858ZM384.806 0L371.195 45.796L457.488 0H384.806ZM463.185 0L468.574 10.1535L427.484 148.423L516.801 101.024L509.878 87.9786L536.023 0H463.185Z" fill="#224192" fill-opacity="0.32"/>
<path d="M481.95 251.055L571.267 203.651L564.345 190.606L605.435 52.336L516.122 99.7397L523.04 112.781L481.95 251.055ZM704.051 0L694.752 4.93236L701.674 17.9773L660.584 156.247L749.901 108.844L742.979 95.8024L771.449 0H704.051Z" fill="#224192" fill-opacity="0.32"/>
<path d="M622.05 0L606.118 53.6199L695.435 6.21617L692.134 0H622.05ZM0 765.534V769.967L16.1394 761.401L0 815.716V829.467L22.5585 753.562L0 765.534ZM0 897.068V901.501L70.61 864.029L32.1813 993.343L31.7247 994.88L32.4739 996.297L37.5624 1005.88L0 1025.81V1030.25L42.8576 1007.5L35.9352 994.459L77.0251 856.189L0 897.068Z" fill="#224192" fill-opacity="0.32"/>
<path d="M42.1787 1006.22L49.0972 1019.26L31.3852 1078.87H35.4708L52.855 1020.38L53.3116 1018.84L52.5585 1017.43L47.4739 1007.84L125.077 966.656L91.7286 1078.87H95.8141L131.492 958.816L42.1787 1006.22ZM153.122 1078.87H161.476L179.547 1069.28L176.695 1078.87H180.78L185.962 1061.45L153.122 1078.87ZM2.93834 500.903L9.86081 513.945L0 547.125V560.876L13.6147 515.061L14.0713 513.523L13.3181 512.111L8.2336 502.527L85.8363 461.339L47.4115 590.654L46.951 592.191L47.7042 593.608L52.7887 603.187L0 631.205V635.642L58.0879 604.811L51.1654 591.77L92.2553 453.5L2.93834 500.903Z" fill="#224192" fill-opacity="0.32"/>
<path d="M146.722 556.127L57.4048 603.531L64.3273 616.572L23.2373 754.842L112.554 707.442L105.632 694.397L146.722 556.127ZM140.307 563.966L101.878 693.281L101.421 694.818L102.171 696.235L107.259 705.818L29.6525 747.002L68.0812 617.688L68.5377 616.15L67.7885 614.738L62.7001 605.154L140.307 563.966Z" fill="#224192" fill-opacity="0.32"/>
<path d="M201.189 658.754L111.875 706.158L118.798 719.199L77.7041 857.473L167.021 810.069L160.099 797.024L201.189 658.754ZM194.773 666.594L156.345 795.908L155.888 797.446L156.641 798.862L161.726 808.446L84.1232 849.633L122.552 720.315L123.008 718.782L122.255 717.365L117.171 707.781L194.773 666.594Z" fill="#224192" fill-opacity="0.32"/>
<path d="M255.659 761.382L166.342 808.785L173.265 821.83L132.175 960.1L221.492 912.696L214.569 899.655L255.659 761.382ZM249.244 769.221L210.812 898.539L210.355 900.073L211.108 901.489L216.193 911.073L138.59 952.261L177.019 822.946L177.475 821.409L176.722 819.992L171.638 810.409L249.244 769.221Z" fill="#224192" fill-opacity="0.32"/>
<path d="M310.126 864.009L220.809 911.412L227.732 924.457L186.642 1062.73L275.959 1015.32L269.036 1002.28L310.126 864.009ZM303.711 871.852L265.282 1001.17L264.826 1002.7L265.575 1004.12L270.663 1013.7L193.057 1054.89L231.485 925.573L231.942 924.036L231.193 922.62L226.108 913.036L303.711 871.852Z" fill="#224192" fill-opacity="0.32"/>
<path d="M275.279 1014.04L282.202 1027.08L266.808 1078.87H270.893L285.956 1028.2L286.412 1026.66L285.659 1025.25L280.575 1015.67L358.177 974.48L327.155 1078.87H331.24L364.596 966.64L275.279 1014.04ZM0 764.566V897.747L12.7016 891.004L5.77913 877.963L46.8691 739.693L0 764.566Z" fill="#224192" fill-opacity="0.32"/>
<path d="M12.0187 889.724L18.9412 902.766L0 966.508V1029.28L67.1682 993.632L60.2458 980.591L101.336 842.321L12.0187 889.724ZM68.3116 992.352L75.2301 1005.39L53.3935 1078.87H117.826L157.625 944.948L68.3116 992.352ZM153.122 1078.87H202.792L212.095 1047.58L153.122 1078.87ZM29.0712 487.031L35.9937 500.076L0 621.192V635.642L84.2169 590.942L77.2983 577.901L118.388 439.627L29.0712 487.031Z" fill="#224192" fill-opacity="0.32"/>
<path d="M49.3701 740.974L138.687 693.57L131.765 680.529L172.855 542.26L83.5376 589.663L90.4601 602.704L49.3701 740.974Z" fill="#224192" fill-opacity="0.32"/>
<path d="M103.837 843.601L193.154 796.198L186.231 783.157L227.321 644.887L138.008 692.29L144.927 705.331L103.837 843.601ZM301.412 1000.17L308.331 1013.22L288.82 1078.88H353.253L390.729 952.769L301.412 1000.17Z" fill="#224192" fill-opacity="0.32"/>
<path d="M158.308 946.233L247.625 898.829L240.702 885.784L281.792 747.514L192.475 794.918L199.398 807.959L158.308 946.233Z" fill="#224192" fill-opacity="0.32"/>
<path d="M212.775 1048.86L302.092 1001.46L295.169 988.411L336.259 850.141L246.942 897.545L253.865 910.586L212.775 1048.86ZM176.484 542.029L265.801 494.625L258.879 481.584L299.969 343.314L210.652 390.718L217.574 403.759L176.484 542.029Z" fill="#224192" fill-opacity="0.32"/>
<path d="M230.95 644.656L320.267 597.252L313.345 584.211L354.435 445.941L265.122 493.345L272.04 506.386L230.95 644.656Z" fill="#224192" fill-opacity="0.32"/>
<path d="M285.421 747.287L374.738 699.883L367.815 686.838L408.905 548.568L319.588 595.972L326.511 609.013L285.421 747.287Z" fill="#224192" fill-opacity="0.32"/>
<path d="M339.888 849.915L429.205 802.511L422.282 789.466L463.372 651.197L374.055 698.6L380.978 711.645L339.888 849.915Z" fill="#224192" fill-opacity="0.32"/>
<path d="M394.354 952.542L483.672 905.139L476.749 892.098L517.839 753.824L428.526 801.227L435.448 814.272L394.354 952.542Z" fill="#224192" fill-opacity="0.32"/>
<path d="M448.824 1055.17L538.141 1007.77L531.219 994.725L572.309 856.455L482.992 903.858L489.914 916.899L448.824 1055.17ZM273.835 357.182L184.518 404.586L191.441 417.627L150.351 555.901L239.668 508.497L232.745 495.452L273.835 357.182ZM267.42 365.022L228.991 494.336L228.535 495.874L229.288 497.29L234.372 506.874L156.766 548.058L195.198 418.743L195.655 417.21L194.902 415.793L189.817 406.209L267.42 365.022Z" fill="#224192" fill-opacity="0.32"/>
<path d="M328.306 459.81L238.989 507.213L245.911 520.254L204.821 658.528L294.134 611.124L287.212 598.079L328.306 459.81ZM321.887 467.649L283.458 596.963L283.001 598.501L283.755 599.917L288.839 609.501L211.236 650.689L249.665 521.37L250.122 519.837L249.369 518.42L244.284 508.837L321.887 467.649Z" fill="#224192" fill-opacity="0.32"/>
<path d="M382.773 562.437L293.456 609.84L300.378 622.885L259.288 761.155L348.605 713.752L341.683 700.711L382.773 562.437ZM376.357 570.276L337.929 699.595L337.472 701.128L338.221 702.545L343.31 712.128L265.703 753.316L304.132 624.001L304.589 622.464L303.839 621.048L298.751 611.464L376.357 570.276Z" fill="#224192" fill-opacity="0.32"/>
<path d="M437.24 665.068L347.923 712.472L354.846 725.513L313.756 863.783L403.073 816.379L396.15 803.338L437.24 665.068ZM430.825 672.907L392.397 802.222L391.94 803.759L392.693 805.172L397.778 814.756L320.171 855.943L358.604 726.629L359.06 725.091L358.307 723.675L353.223 714.095L430.825 672.907Z" fill="#224192" fill-opacity="0.32"/>
<path d="M491.71 767.695L402.393 815.099L409.316 828.14L368.226 966.41L457.539 919.006L450.62 905.965L491.71 767.695ZM485.291 775.535L446.862 904.849L446.406 906.387L447.159 907.799L452.243 917.383L374.641 958.57L413.069 829.256L413.526 827.719L412.773 826.302L407.688 816.722L485.291 775.535Z" fill="#224192" fill-opacity="0.32"/>
<path d="M546.177 870.322L456.86 917.726L463.782 930.767L422.692 1069.04L512.009 1021.63L505.087 1008.59L546.177 870.322ZM539.762 878.161L501.333 1007.48L500.876 1009.01L501.626 1010.43L506.714 1020.01L429.107 1061.2L467.536 931.883L467.993 930.345L467.243 928.933L462.155 919.349L539.762 878.161ZM452.47 262.374L363.153 309.778L370.075 322.823L328.985 461.093L418.302 413.689L411.38 400.644L452.47 262.374ZM446.055 270.214L407.626 399.532L407.169 401.065L407.919 402.482L413.007 412.066L335.401 453.253L373.829 323.939L374.286 322.401L373.537 320.985L368.448 311.401L446.055 270.214Z" fill="#224192" fill-opacity="0.32"/>
<path d="M506.936 365.002L417.619 412.406L424.541 425.451L383.451 563.721L472.768 516.317L465.846 503.276L506.936 365.002ZM500.52 372.846L462.092 502.16L461.635 503.694L462.388 505.11L467.473 514.694L389.866 555.882L428.299 426.567L428.755 425.03L428.002 423.613L422.918 414.029L500.52 372.846Z" fill="#224192" fill-opacity="0.32"/>
<path d="M561.406 467.634L472.089 515.037L479.012 528.078L437.922 666.348L527.239 618.945L520.316 605.903L561.406 467.634ZM554.987 475.473L516.559 604.787L516.102 606.325L516.855 607.737L521.94 617.321L444.337 658.509L482.766 529.194L483.222 527.657L482.469 526.24L477.385 516.661L554.987 475.473Z" fill="#224192" fill-opacity="0.32"/>
<path d="M615.873 570.261L526.556 617.664L533.479 630.706L492.389 768.975L581.706 721.572L574.783 708.531L615.873 570.261ZM609.458 578.1L571.029 707.415L570.573 708.952L571.322 710.369L576.41 719.948L498.804 761.136L537.233 631.822L537.689 630.284L536.94 628.871L531.851 619.288L609.458 578.1Z" fill="#224192" fill-opacity="0.32"/>
<path d="M670.34 672.889L581.023 720.293L587.945 733.334L546.855 871.607L636.172 824.204L629.25 811.159L670.34 672.889ZM663.925 680.728L625.496 810.043L625.04 811.58L625.793 812.997L630.877 822.58L553.271 863.764L591.699 734.45L592.156 732.912L591.407 731.5L586.322 721.916L663.925 680.728Z" fill="#224192" fill-opacity="0.32"/>
<path d="M724.811 775.515L635.494 822.919L642.416 835.96L601.326 974.233L690.643 926.83L683.721 913.785L724.811 775.515ZM718.392 783.354L679.963 912.669L679.506 914.206L680.259 915.623L685.344 925.206L607.741 966.394L646.17 837.076L646.627 835.542L645.873 834.126L640.789 824.542L718.392 783.354ZM631.104 167.571L541.787 214.974L548.709 228.016L507.619 366.285L596.936 318.882L590.014 305.841L631.104 167.571ZM624.685 175.41L586.256 304.725L585.799 306.262L586.552 307.675L591.637 317.258L514.034 358.446L552.463 229.132L552.92 227.594L552.166 226.178L547.082 216.598L624.685 175.41Z" fill="#224192" fill-opacity="0.32"/>
<path d="M685.57 270.198L596.253 317.601L603.176 330.643L562.086 468.912L651.403 421.509L644.48 408.468L685.57 270.198ZM679.155 278.037L640.727 407.352L640.27 408.889L641.019 410.302L646.108 419.885L568.501 461.073L606.93 331.759L607.386 330.221L606.637 328.805L601.549 319.225L679.155 278.037Z" fill="#224192" fill-opacity="0.32"/>
<path d="M740.037 372.826L650.724 420.23L657.643 433.271L616.553 571.541L705.87 524.137L698.947 511.096L740.037 372.826ZM733.622 380.666L695.193 509.98L694.737 511.517L695.49 512.934L700.574 522.514L622.968 563.701L661.4 434.387L661.857 432.85L661.104 431.437L656.019 421.853L733.622 380.666Z" fill="#224192" fill-opacity="0.32"/>
<path d="M794.507 475.453L705.19 522.857L712.112 535.898L671.022 674.172L760.336 626.768L753.417 613.723L794.507 475.453ZM788.088 483.293L749.659 612.607L749.203 614.145L749.956 615.561L755.04 625.145L677.438 666.332L715.866 537.014L716.323 535.481L715.57 534.064L710.485 524.48L788.088 483.293Z" fill="#224192" fill-opacity="0.32"/>
<path d="M848.974 578.081L759.657 625.484L766.579 638.529L725.489 776.799L814.806 729.395L807.884 716.35L848.974 578.081ZM842.559 585.92L804.13 715.238L803.673 716.772L804.426 718.188L809.511 727.772L731.904 768.96L770.333 639.641L770.79 638.108L770.04 636.691L764.952 627.108L842.559 585.92Z" fill="#224192" fill-opacity="0.32"/>
<path d="M903.44 680.709L814.123 728.112L821.05 741.157L779.956 879.427L869.273 832.024L862.351 818.982L903.44 680.709ZM897.025 688.552L858.597 817.866L858.14 819.4L858.893 820.816L863.978 830.4L786.375 871.588L824.804 742.273L825.26 740.736L824.507 739.319L819.423 729.736L897.025 688.552ZM809.734 72.7646L720.42 120.168L727.343 133.209L686.249 271.479L775.566 224.076L768.644 211.035L809.734 72.7646ZM803.318 80.6041L764.89 209.918L764.433 211.456L765.186 212.872L770.271 222.452L692.668 263.64L731.097 134.325L731.553 132.788L730.8 131.375L725.716 121.792L803.318 80.6041Z" fill="#224192" fill-opacity="0.32"/>
<path d="M864.204 175.392L774.887 222.795L781.81 235.836L740.72 374.11L830.037 326.706L823.114 313.661L864.204 175.392ZM857.789 183.231L819.36 312.545L818.904 314.083L819.653 315.499L824.738 325.083L747.135 366.267L785.564 236.952L786.02 235.419L785.271 234.002L780.182 224.419L857.789 183.231Z" fill="#224192" fill-opacity="0.32"/>
<path d="M918.671 278.019L829.354 325.423L836.276 338.464L795.187 476.738L884.504 429.334L877.581 416.289L918.671 278.019ZM912.256 285.859L873.827 415.173L873.371 416.71L874.12 418.127L879.208 427.711L801.602 468.898L840.03 339.58L840.487 338.046L839.738 336.63L834.649 327.046L912.256 285.859Z" fill="#224192" fill-opacity="0.32"/>
<path d="M973.138 380.646L883.821 428.05L890.747 441.095L849.657 579.365L938.97 531.961L932.048 518.92L973.138 380.646ZM966.723 388.485L928.294 517.804L927.837 519.337L928.591 520.754L933.675 530.338L856.072 571.525L894.501 442.211L894.958 440.673L894.205 439.257L889.12 429.673L966.723 388.485Z" fill="#224192" fill-opacity="0.32"/>
<path d="M1027.61 483.277L938.291 530.677L945.213 543.722L904.123 681.992L993.44 634.588L986.518 621.547L1027.61 483.277ZM1021.19 491.117L982.76 620.431L982.307 621.969L983.056 623.381L988.145 632.965L910.538 674.153L948.967 544.838L949.423 543.301L948.67 541.884L943.586 532.3L1021.19 491.117Z" fill="#224192" fill-opacity="0.32"/>
<path d="M1082.07 585.905L992.758 633.309L999.68 646.35L958.59 784.62L1047.91 737.216L1040.98 724.175L1082.07 585.905ZM1075.66 593.744L1037.23 723.059L1036.77 724.596L1037.52 726.009L1042.61 735.593L965.006 776.78L1003.43 647.466L1003.89 645.928L1003.14 644.512L998.057 634.932L1075.66 593.744ZM355.118 447.225L444.435 399.822L437.513 386.777L478.603 248.507L389.286 295.911L396.208 308.952L355.118 447.225Z" fill="#224192" fill-opacity="0.32"/>
<path d="M407.766 549.852L497.079 502.449L490.156 489.404L531.246 351.134L441.933 398.537L448.856 411.579L407.766 549.852ZM464.055 652.48L553.372 605.076L546.445 592.035L587.535 453.761L498.222 501.165L505.145 514.21L464.055 652.48Z" fill="#224192" fill-opacity="0.32"/>
<path d="M516.699 755.107L606.016 707.703L599.094 694.662L640.184 556.388L550.867 603.792L557.789 616.837L516.699 755.107ZM572.988 857.734L662.305 810.33L655.383 797.289L696.473 659.019L607.156 706.423L614.078 719.464L572.988 857.734Z" fill="#224192" fill-opacity="0.32"/>
<path d="M627.459 960.362L716.776 912.958L709.85 899.917L750.94 761.647L661.626 809.051L668.549 822.092L627.459 960.362ZM533.752 352.418L623.069 305.014L616.143 291.969L657.233 153.699L567.919 201.103L574.842 214.148L533.752 352.418Z" fill="#224192" fill-opacity="0.32"/>
<path d="M586.396 455.045L675.713 407.642L668.79 394.6L709.88 256.327L620.567 303.73L627.485 316.775L586.396 455.045Z" fill="#224192" fill-opacity="0.32"/>
<path d="M640.867 557.672L730.184 510.269L723.258 497.228L764.352 358.958L675.035 406.361L681.957 419.403L640.867 557.672Z" fill="#224192" fill-opacity="0.32"/>
<path d="M695.333 660.3L784.65 612.896L777.728 599.855L818.818 461.585L729.5 508.989L736.423 522.03L695.333 660.3ZM751.622 762.927L840.939 715.527L834.016 702.482L875.106 564.212L785.789 611.616L792.712 624.657L751.622 762.927Z" fill="#224192" fill-opacity="0.32"/>
<path d="M806.089 865.558L895.406 818.154L888.483 805.109L929.573 666.839L840.26 714.243L847.179 727.284L806.089 865.558ZM712.382 257.61L801.699 210.206L794.776 197.165L835.866 58.895L746.553 106.295L753.472 119.34L712.382 257.61Z" fill="#224192" fill-opacity="0.32"/>
<path d="M766.853 360.237L856.17 312.833L849.247 299.792L890.337 161.522L801.02 208.926L807.943 221.967L766.853 360.237Z" fill="#224192" fill-opacity="0.32"/>
<path d="M821.319 462.865L910.636 415.461L903.714 402.42L944.804 264.15L855.487 311.554L862.409 324.595L821.319 462.865ZM984.723 770.751L1074.04 723.347L1067.12 710.306L1108.21 572.032L1018.89 619.436L1025.81 632.481L984.723 770.751Z" fill="#224192" fill-opacity="0.32"/>
<path d="M875.786 565.496L965.103 518.092L958.181 505.047L999.271 366.778L909.958 414.181L916.876 427.222L875.786 565.496Z" fill="#224192" fill-opacity="0.32"/>
<path d="M930.256 668.123L1019.57 620.72L1012.65 607.675L1053.74 469.405L964.424 516.808L971.346 529.853L930.256 668.123ZM394.229 1078.87H402.584L410.861 1074.48L409.557 1078.87H413.643L417.28 1066.64L394.229 1078.87Z" fill="#224192" fill-opacity="0.32"/>
<path d="M394.229 1078.87H435.655L443.413 1052.77L394.229 1078.87ZM535.676 1003.86L542.598 1016.9L524.18 1078.87H588.613L624.993 956.456L535.676 1003.86ZM642.17 1078.87H673.579L679.459 1059.08L642.17 1078.87Z" fill="#224192" fill-opacity="0.32"/>
<path d="M509.543 1017.73L516.466 1030.77L502.172 1078.88H506.257L520.219 1031.89L520.676 1030.35L519.927 1028.93L514.838 1019.35L592.445 978.164L562.515 1078.88H566.601L598.86 970.328L509.543 1017.73ZM642.17 1078.88H651.567L653.327 1072.96L642.17 1078.88ZM777.494 875.521L688.177 922.924L695.1 935.966L654.01 1074.24L743.327 1026.83L736.404 1013.79L777.494 875.521ZM771.075 883.36L732.646 1012.67L732.19 1014.21L732.943 1015.63L738.027 1025.21L660.425 1066.4L698.854 937.082L699.31 935.544L698.557 934.132L693.472 924.548L771.075 883.36Z" fill="#224192" fill-opacity="0.32"/>
<path d="M742.643 1025.55L749.566 1038.59L737.598 1078.88H741.683L753.32 1039.71L753.78 1038.18L753.027 1036.76L747.938 1027.18L825.545 985.988L797.941 1078.88H802.027L831.96 978.148L742.643 1025.55ZM956.124 780.713L866.811 828.117L873.733 841.158L832.643 979.432L921.956 932.028L915.034 918.983L956.124 780.713ZM949.708 788.553L911.28 917.867L910.823 919.405L911.576 920.821L916.661 930.405L839.058 971.592L877.487 842.274L877.943 840.741L877.19 839.324L872.106 829.74L949.708 788.553Z" fill="#224192" fill-opacity="0.32"/>
<path d="M921.278 930.744L928.2 943.785L888.055 1078.87H893.108L976.427 1034.66L969.505 1021.61L1010.59 883.341L921.278 930.744ZM931.954 944.901L932.411 943.368L931.662 941.951L926.573 932.368L1004.18 891.18L965.751 1020.49L965.294 1022.03L966.044 1023.45L971.132 1033.03L893.526 1074.22L931.954 944.901Z" fill="#224192" fill-opacity="0.32"/>
<path d="M975.744 1033.37L982.667 1046.42L973.021 1078.87H977.106L986.421 1047.53L986.881 1045.99L986.128 1044.58L981.043 1034.99L1058.65 993.807L1033.37 1078.87H1037.45L1065.06 985.971L975.744 1033.37ZM1134.76 685.905L1045.44 733.309L1052.36 746.354L1011.27 884.624L1100.59 837.22L1093.67 824.179L1134.76 685.905ZM1128.34 693.745L1089.91 823.063L1089.46 824.596L1090.21 826.013L1095.3 835.597L1017.69 876.784L1056.12 747.47L1056.58 745.932L1055.82 744.516L1050.74 734.932L1128.34 693.745Z" fill="#224192" fill-opacity="0.32"/>
<path d="M1189.23 788.537L1099.91 835.937L1106.83 848.982L1065.74 987.252L1155.06 939.848L1148.13 926.807L1189.23 788.537ZM1182.81 796.377L1144.38 925.691L1143.92 927.228L1144.68 928.641L1149.76 938.225L1072.16 979.412L1110.59 850.098L1111.04 848.56L1110.29 847.144L1105.21 837.56L1182.81 796.377Z" fill="#224192" fill-opacity="0.32"/>
<path d="M1154.38 938.568L1161.3 951.609L1123.48 1078.88H1127.57L1165.05 952.725L1165.51 951.188L1164.76 949.775L1159.67 940.192L1237.28 899.004L1198.85 1028.32L1198.39 1029.86L1199.14 1031.27L1204.23 1040.85L1132.59 1078.88H1140.95L1209.53 1042.48L1202.6 1029.43L1243.69 891.165L1154.38 938.568Z" fill="#224192" fill-opacity="0.32"/>
<path d="M1208.84 1041.2L1215.77 1054.24L1208.45 1078.87H1212.53L1219.52 1055.35L1219.98 1053.82L1219.23 1052.4L1214.14 1042.82L1291.75 1001.63L1268.79 1078.87H1272.88L1298.16 993.792L1208.84 1041.2ZM680.142 1060.37L769.459 1012.96L762.536 999.922L803.626 861.648L714.309 909.052L721.232 922.097L680.142 1060.37Z" fill="#224192" fill-opacity="0.32"/>
<path d="M766.954 1011.68L773.877 1024.72L757.784 1078.88H822.217L856.271 964.28L766.954 1011.68ZM890.01 1078.88H909.005L912.56 1066.91L890.01 1078.88ZM858.773 965.56L948.09 918.156L941.167 905.115L982.257 766.845L892.944 814.249L899.863 827.29L858.773 965.56Z" fill="#224192" fill-opacity="0.32"/>
<path d="M911.421 1068.19L1000.74 1020.79L993.815 1007.74L1034.91 869.472L945.588 916.876L952.511 929.917L911.421 1068.19Z" fill="#224192" fill-opacity="0.32"/>
<path d="M1000.06 1019.5L1006.98 1032.54L993.21 1078.88H1057.64L1089.37 972.1L1000.06 1019.5ZM1136.03 1078.88H1142.61L1143.84 1074.73L1136.03 1078.88ZM1037.41 870.756L1126.72 823.352L1119.8 810.307L1160.89 672.038L1071.57 719.441L1078.5 732.482L1037.41 870.756Z" fill="#224192" fill-opacity="0.32"/>
<path d="M1091.88 973.383L1181.19 925.98L1174.27 912.935L1215.36 774.665L1126.04 822.068L1132.97 835.113L1091.88 973.383Z" fill="#224192" fill-opacity="0.32"/>
<path d="M1146.34 1076.01L1235.66 1028.61L1228.74 1015.57L1269.83 877.292L1180.51 924.696L1187.43 937.741L1146.34 1076.01Z" fill="#224192" fill-opacity="0.32"/>
<path d="M1234.98 1027.33L1241.9 1040.37L1230.46 1078.87H1294.89L1324.29 979.923L1234.98 1027.33ZM856.068 0L838.044 60.6594L927.361 13.2557L920.438 0.210718L920.501 0H856.068Z" fill="#224192" fill-opacity="0.32"/>
<path d="M894.402 0L890.551 12.9669L890.094 14.5005L890.843 15.917L895.932 25.5007L818.325 66.6883L838.145 0H834.059L811.91 74.5277L901.227 27.1241L894.305 14.083L898.488 0H894.402ZM944.186 0L924.008 10.7076L930.931 23.7526L889.841 162.022L979.158 114.619L972.235 101.574L1002.42 0H944.186Z" fill="#224192" fill-opacity="0.32"/>
<path d="M944.312 264.65L1033.62 217.246L1026.7 204.205L1067.79 65.9312L978.479 113.335L985.401 126.38L944.312 264.65Z" fill="#224192" fill-opacity="0.32"/>
<path d="M998.779 367.277L1088.1 319.873L1081.17 306.832L1122.26 168.562L1032.95 215.966L1039.87 229.007L998.779 367.277Z" fill="#224192" fill-opacity="0.32"/>
<path d="M1053.25 469.904L1142.56 422.5L1135.64 409.459L1176.73 271.189L1087.41 318.593L1094.34 331.634L1053.25 469.904Z" fill="#224192" fill-opacity="0.32"/>
<path d="M1107.72 572.532L1197.03 525.132L1190.11 512.087L1231.2 373.817L1141.88 421.221L1148.81 434.262L1107.72 572.532Z" fill="#224192" fill-opacity="0.32"/>
<path d="M1162.18 675.163L1251.5 627.759L1244.58 614.714L1285.67 476.444L1196.35 523.848L1203.27 536.889L1162.18 675.163ZM976.326 0L942.35 114.33L941.893 115.867L942.646 117.28L947.731 126.864L870.124 168.051L908.553 38.7369L909.013 37.1995L908.26 35.783L903.176 26.2031L952.542 0H944.188L897.876 24.5759L904.799 37.6209L863.709 175.891L953.026 128.487L946.104 115.446L980.411 0H976.326Z" fill="#224192" fill-opacity="0.32"/>
<path d="M1041.66 79.8037L952.347 127.207L959.27 140.248L918.18 278.518L1007.49 231.115L1000.57 218.074L1041.66 79.8037ZM1035.25 87.6432L996.816 216.958L996.36 218.495L997.113 219.908L1002.2 229.491L924.595 270.679L963.024 141.365L963.48 139.827L962.727 138.411L957.642 128.831L1035.25 87.6432Z" fill="#224192" fill-opacity="0.32"/>
<path d="M1096.13 182.431L1006.81 229.835L1013.74 242.876L972.646 381.146L1061.96 333.742L1055.04 320.701L1096.13 182.431ZM1089.72 190.271L1051.29 319.585L1050.83 321.122L1051.58 322.539L1056.67 332.119L979.062 373.306L1017.49 243.992L1017.95 242.454L1017.2 241.042L1012.11 231.458L1089.72 190.271Z" fill="#224192" fill-opacity="0.32"/>
<path d="M1150.6 285.058L1061.28 332.462L1068.2 345.503L1027.11 483.777L1116.43 436.373L1109.51 423.328L1150.6 285.058ZM1144.18 292.898L1105.75 422.212L1105.3 423.749L1106.05 425.166L1111.13 434.75L1033.53 475.937L1071.96 346.619L1072.42 345.085L1071.66 343.669L1066.58 334.085L1144.18 292.898Z" fill="#224192" fill-opacity="0.32"/>
<path d="M1205.07 387.685L1115.75 435.089L1122.67 448.134L1081.58 586.404L1170.9 539L1163.98 525.955L1205.07 387.685ZM1198.65 395.525L1160.22 524.843L1159.76 526.377L1160.52 527.793L1165.6 537.377L1088 578.564L1126.43 449.25L1126.88 447.713L1126.13 446.296L1121.05 436.712L1198.65 395.525Z" fill="#224192" fill-opacity="0.32"/>
<path d="M1259.53 490.313L1170.22 537.717L1177.14 550.762L1136.05 689.031L1225.37 641.628L1218.44 628.587L1259.53 490.313ZM1253.12 498.156L1214.69 627.471L1214.23 629.004L1214.98 630.421L1220.07 640.004L1142.46 681.192L1180.89 551.878L1181.35 550.34L1180.6 548.924L1175.51 539.34L1253.12 498.156ZM1126.78 0L1120.98 19.5226L1120.53 21.0601L1121.28 22.4727L1126.36 32.0564L1048.76 73.2439L1070.52 0H1066.44L1042.34 81.0834L1131.66 33.6836L1124.74 20.6386L1130.87 0H1126.78Z" fill="#224192" fill-opacity="0.32"/>
<path d="M1211.75 0L1175.45 122.15L1174.99 123.687L1175.75 125.104L1180.83 134.684L1103.23 175.871L1141.66 46.5569L1142.11 45.0195L1141.36 43.6069L1136.28 34.0231L1200.38 0H1192.03L1130.98 32.3998L1137.9 45.4409L1096.81 183.711L1186.13 136.311L1179.2 123.266L1215.83 0H1211.75Z" fill="#224192" fill-opacity="0.32"/>
<path d="M1274.76 87.6235L1185.45 135.027L1192.37 148.068L1151.28 286.342L1240.6 238.938L1233.67 225.893L1274.76 87.6235ZM1268.34 95.463L1229.92 224.777L1229.46 226.315L1230.21 227.731L1235.3 237.315L1157.69 278.503L1196.12 149.184L1196.58 147.651L1195.83 146.234L1190.74 136.651L1268.34 95.463Z" fill="#224192" fill-opacity="0.32"/>
<path d="M1329.23 190.251L1239.91 237.655L1246.84 250.7L1205.75 388.97L1295.06 341.566L1288.14 328.525L1329.23 190.251ZM1322.82 198.09L1284.39 327.409L1283.93 328.942L1284.68 330.359L1289.77 339.943L1212.16 381.13L1250.59 251.816L1251.05 250.278L1250.3 248.862L1245.21 239.278L1322.82 198.09Z" fill="#224192" fill-opacity="0.32"/>
<path d="M1383.7 292.882L1294.38 340.282L1301.31 353.327L1260.21 491.596L1349.53 444.193L1342.61 431.152L1383.7 292.882ZM1377.28 300.721L1338.85 430.036L1338.4 431.573L1339.15 432.986L1344.23 442.569L1266.63 483.757L1305.06 354.443L1305.52 352.905L1304.76 351.489L1299.68 341.905L1377.28 300.721Z" fill="#224192" fill-opacity="0.32"/>
<path d="M1438.17 395.509L1348.85 442.913L1355.77 455.954L1314.68 594.224L1404 546.82L1397.08 533.779L1438.17 395.509ZM1431.75 403.349L1393.32 532.663L1392.86 534.201L1393.62 535.613L1398.7 545.197L1321.1 586.385L1359.53 457.07L1359.98 455.533L1359.23 454.116L1354.15 444.536L1431.75 403.349ZM1362.21 0L1354.08 27.3426L1353.63 28.88L1354.38 30.2965L1359.47 39.8803L1281.86 81.0678L1305.95 0H1301.87L1275.44 88.9073L1364.76 41.5036L1357.84 28.4586L1366.29 0H1362.21Z" fill="#224192" fill-opacity="0.32"/>
<path d="M1439.86 0L1364.08 40.2198L1371 53.2648L1329.91 191.535L1419.23 144.131L1412.3 131.09L1451.26 0H1439.86ZM1374.76 54.3808L1375.21 52.8433L1374.46 51.4268L1369.38 41.8431L1446.98 0.655566L1408.55 129.974L1408.09 131.507L1408.85 132.924L1413.93 142.508L1336.33 183.695L1374.76 54.3808Z" fill="#224192" fill-opacity="0.32"/>
<path d="M1507.87 95.4473L1418.55 142.851L1425.47 155.892L1384.38 294.162L1473.7 246.758L1466.78 233.717L1507.87 95.4473ZM1501.45 103.287L1463.02 232.601L1462.56 234.139L1463.31 235.551L1468.4 245.135L1390.8 286.322L1429.22 157.008L1429.68 155.471L1428.93 154.054L1423.84 144.474L1501.45 103.287Z" fill="#224192" fill-opacity="0.32"/>
<path d="M1562.33 198.075L1473.02 245.478L1479.94 258.519L1438.85 396.789L1528.16 349.386L1521.24 336.345L1562.33 198.075ZM1555.92 205.914L1517.49 335.229L1517.03 336.766L1517.78 338.182L1522.87 347.762L1445.26 388.95L1483.69 259.636L1484.15 258.098L1483.4 256.685L1478.31 247.102L1555.92 205.914Z" fill="#224192" fill-opacity="0.32"/>
<path d="M1616.8 300.702L1527.48 348.106L1534.41 361.147L1493.31 499.421L1582.63 452.017L1575.71 438.972L1616.8 300.702ZM1610.39 308.542L1571.95 437.856L1571.5 439.393L1572.25 440.81L1577.34 450.394L1499.73 491.577L1538.16 362.263L1538.62 360.729L1537.86 359.313L1532.78 349.729L1610.39 308.542ZM1597.63 0L1587.18 35.1665L1586.73 36.7039L1587.48 38.1165L1592.57 47.7003L1514.96 88.8878L1541.38 0H1537.29L1508.54 96.7272L1597.86 49.3275L1590.94 36.2825L1601.72 0H1597.63Z" fill="#224192" fill-opacity="0.32"/>
<path d="M1597.18 48.0429L1604.1 61.0839L1563.01 199.354L1652.33 151.954L1645.41 138.909L1686.5 0.63916L1597.18 48.0429ZM1607.86 62.2L1608.32 60.6625L1607.56 59.2499L1602.48 49.6662L1680.08 8.47864L1641.65 137.793L1641.19 139.33L1641.95 140.747L1647.03 150.331L1569.43 191.514L1607.86 62.2Z" fill="#224192" fill-opacity="0.32"/>
<path d="M1740.97 103.268L1651.65 150.671L1658.57 163.712L1617.48 301.986L1706.8 254.582L1699.88 241.537L1740.97 103.268ZM1734.55 111.107L1696.12 240.421L1695.67 241.959L1696.41 243.375L1701.5 252.959L1623.9 294.147L1662.33 164.828L1662.78 163.295L1662.03 161.878L1656.94 152.295L1734.55 111.107Z" fill="#224192" fill-opacity="0.32"/>
<path d="M1795.43 205.895L1706.12 253.298L1713.04 266.343L1671.95 404.613L1761.26 357.21L1754.34 344.168L1795.43 205.895ZM1789.02 213.734L1750.59 343.052L1750.13 344.586L1750.88 346.002L1755.97 355.586L1678.36 396.774L1716.79 267.459L1717.25 265.922L1716.5 264.505L1711.41 254.922L1789.02 213.734ZM1088.45 0L1068.48 67.2151L1157.79 19.8114L1150.87 6.77028L1152.88 0H1088.45Z" fill="#224192" fill-opacity="0.32"/>
<path d="M1190.2 0L1155.29 18.5315L1162.21 31.5725L1121.12 169.842L1210.44 122.439L1203.52 109.398L1236.03 0H1190.2ZM1177.41 272.47L1266.73 225.066L1259.81 212.025L1300.9 73.7551L1211.58 121.159L1218.5 134.2L1177.41 272.47Z" fill="#224192" fill-opacity="0.32"/>
<path d="M1230.06 375.101L1319.37 327.697L1312.45 314.652L1353.54 176.382L1264.23 223.786L1271.15 236.827L1230.06 375.101ZM1286.35 477.728L1375.66 430.325L1368.74 417.28L1409.83 279.01L1320.52 326.413L1327.44 339.458L1286.35 477.728Z" fill="#224192" fill-opacity="0.32"/>
<path d="M1340.82 580.356L1430.13 532.952L1423.21 519.911L1464.3 381.637L1374.98 429.041L1381.91 442.086L1340.82 580.356ZM1322.05 0L1299.75 75.035L1389.07 27.6313L1382.15 14.5903L1386.48 0H1322.05Z" fill="#224192" fill-opacity="0.32"/>
<path d="M1438.04 0L1388.39 26.3514L1395.31 39.3925L1354.22 177.666L1443.54 130.263L1436.62 117.218L1471.45 0H1438.04Z" fill="#224192" fill-opacity="0.32"/>
<path d="M1408.69 280.294L1498.01 232.89L1491.08 219.849L1532.17 81.5752L1442.86 128.979L1449.78 142.024L1408.69 280.294ZM1464.98 382.921L1554.3 335.517L1547.37 322.476L1588.46 184.206L1499.15 231.606L1506.07 244.651L1464.98 382.921Z" fill="#224192" fill-opacity="0.32"/>
<path d="M1519.45 485.548L1608.76 438.145L1601.84 425.104L1642.93 286.834L1553.62 334.237L1560.54 347.278L1519.45 485.548ZM1559.3 0L1534.68 82.8589L1623.99 35.4552L1617.07 22.4141L1623.73 0H1559.3ZM1698.08 390.745L1787.4 343.341L1780.47 330.296L1821.56 192.026L1732.25 239.43L1739.17 252.471L1698.08 390.745Z" fill="#224192" fill-opacity="0.32"/>
<path d="M1687.7 0L1623.31 34.1753L1630.24 47.2164L1589.14 185.486L1678.46 138.083L1671.54 125.041L1708.7 0H1687.7Z" fill="#224192" fill-opacity="0.32"/>
<path d="M1643.61 288.114L1732.93 240.71L1726.01 227.669L1767.1 89.3989L1677.78 136.803L1684.7 149.844L1643.61 288.114ZM1797.23 0L1770.73 89.1687L1860.04 41.765L1853.12 28.7239L1861.66 0H1797.23Z" fill="#224192" fill-opacity="0.32"/>
<path d="M1859.36 40.4851L1866.28 53.5262L1825.19 191.796L1914.51 144.396L1907.59 131.351L1918 96.3214V9.36523L1859.36 40.4851Z" fill="#224192" fill-opacity="0.32"/>
<path d="M1913.83 143.112L1918 150.968V140.9L1913.83 143.112ZM1879.66 294.427L1918 274.081V165.421L1879.66 294.427ZM1690.25 0L1690.13 0.409729L1690.9 0H1690.25ZM1835.56 0L1823.24 41.4763L1822.78 43.0137L1823.53 44.4302L1828.62 54.014L1751.01 95.2015L1779.3 0H1775.21L1744.59 103.041L1833.91 55.6373L1826.99 42.5923L1839.65 0H1835.56Z" fill="#224192" fill-opacity="0.32"/>
<path d="M1833.23 54.3535L1840.16 67.3985L1799.06 205.668L1888.38 158.265L1881.46 145.22L1918 22.2541V9.36523L1833.23 54.3535ZM1843.91 68.5145L1844.37 66.977L1843.61 65.5605L1838.53 55.9768L1916.13 14.7893L1877.7 144.104L1877.25 145.641L1878 147.058L1883.08 156.641L1805.48 197.829L1843.91 68.5145Z" fill="#224192" fill-opacity="0.32"/>
<path d="M1887.7 156.981L1894.62 170.026L1853.53 308.296L1918 274.081V269.645L1859.95 300.456L1898.38 171.142L1898.83 169.604L1898.08 168.188L1892.99 158.604L1918 145.337V140.9L1887.7 156.981ZM1214.87 775.164L1304.18 727.761L1297.26 714.719L1338.35 576.45L1249.03 623.853L1255.96 636.894L1214.87 775.164Z" fill="#224192" fill-opacity="0.32"/>
<path d="M1269.33 877.792L1358.65 830.392L1351.73 817.347L1392.82 679.077L1303.5 726.481L1310.42 739.522L1269.33 877.792Z" fill="#224192" fill-opacity="0.32"/>
<path d="M1323.8 980.423L1413.12 933.019L1406.2 919.974L1447.29 781.704L1357.97 829.108L1364.89 842.149L1323.8 980.423Z" fill="#224192" fill-opacity="0.32"/>
<path d="M1412.44 931.735L1419.36 944.78L1379.51 1078.87H1386.14L1467.59 1035.65L1460.66 1022.6L1501.75 884.331L1412.44 931.735Z" fill="#224192" fill-opacity="0.32"/>
<path d="M1466.9 1034.36L1473.83 1047.41L1464.48 1078.88H1528.91L1556.22 986.963L1466.9 1034.36ZM1312.22 590.318L1222.9 637.722L1229.82 650.763L1188.73 789.037L1278.05 741.633L1271.13 728.588L1312.22 590.318ZM1305.8 598.158L1267.37 727.472L1266.92 729.009L1267.67 730.426L1272.75 740.01L1195.15 781.197L1233.58 651.879L1234.03 650.345L1233.28 648.929L1228.2 639.345L1305.8 598.158Z" fill="#224192" fill-opacity="0.32"/>
<path d="M1366.68 692.945L1277.37 740.349L1284.29 753.394L1243.2 891.664L1332.52 844.26L1325.59 831.215L1366.68 692.945ZM1360.27 700.785L1321.84 830.103L1321.38 831.637L1322.14 833.053L1327.22 842.637L1249.62 883.824L1288.05 754.506L1288.5 752.973L1287.75 751.556L1282.67 741.972L1360.27 700.785Z" fill="#224192" fill-opacity="0.32"/>
<path d="M1421.15 795.573L1331.84 842.976L1338.76 856.021L1297.67 994.291L1386.99 946.888L1380.06 933.847L1421.15 795.573ZM1414.74 803.416L1376.31 932.73L1375.85 934.264L1376.6 935.681L1381.69 945.264L1304.09 986.452L1342.51 857.137L1342.97 855.6L1342.22 854.184L1337.13 844.6L1414.74 803.416Z" fill="#224192" fill-opacity="0.32"/>
<path d="M1386.3 945.604L1393.23 958.649L1357.5 1078.87H1361.58L1396.98 959.765L1397.44 958.227L1396.69 956.811L1391.6 947.227L1469.21 906.043L1430.78 1035.36L1430.32 1036.89L1431.07 1038.31L1436.16 1047.89L1377.78 1078.87H1386.14L1441.45 1049.51L1434.53 1036.47L1475.62 898.204L1386.3 945.604Z" fill="#224192" fill-opacity="0.32"/>
<path d="M1440.78 1048.24L1447.7 1061.28L1442.46 1078.88H1446.55L1451.45 1062.39L1451.91 1060.85L1451.15 1059.44L1446.07 1049.86L1523.67 1008.67L1502.81 1078.88H1506.9L1530.09 1000.83L1440.78 1048.24ZM1490.85 495.511L1401.53 542.914L1408.46 555.959L1367.37 694.229L1456.68 646.826L1449.76 633.785L1490.85 495.511ZM1484.44 503.35L1446 632.668L1445.55 634.202L1446.3 635.619L1451.39 645.202L1373.78 686.39L1412.21 557.075L1412.67 555.538L1411.91 554.121L1406.83 544.538L1484.44 503.35Z" fill="#224192" fill-opacity="0.32"/>
<path d="M1545.32 598.142L1456 645.542L1462.92 658.587L1421.83 796.857L1511.15 749.453L1504.23 736.412L1545.32 598.142ZM1538.9 605.982L1500.47 735.296L1500.02 736.833L1500.77 738.246L1505.86 747.83L1428.25 789.017L1466.68 659.703L1467.14 658.165L1466.39 656.749L1461.3 647.165L1538.9 605.982Z" fill="#224192" fill-opacity="0.32"/>
<path d="M1599.79 700.769L1510.47 748.173L1517.39 761.214L1476.3 899.484L1565.62 852.08L1558.69 839.039L1599.79 700.769ZM1593.37 708.609L1554.94 837.923L1554.48 839.461L1555.24 840.873L1560.32 850.457L1482.72 891.644L1521.15 762.33L1521.6 760.793L1520.85 759.376L1515.77 749.796L1593.37 708.609Z" fill="#224192" fill-opacity="0.32"/>
<path d="M1654.26 803.396L1564.94 850.8L1571.86 863.841L1530.77 1002.11L1620.09 954.707L1613.17 941.666L1654.26 803.396ZM1647.84 811.236L1609.41 940.55L1608.95 942.088L1609.7 943.504L1614.79 953.084L1537.19 994.272L1575.61 864.957L1576.07 863.42L1575.32 862.007L1570.23 852.423L1647.84 811.236Z" fill="#224192" fill-opacity="0.32"/>
<path d="M1619.41 953.427L1626.33 966.468L1592.92 1078.87H1597.01L1630.09 967.584L1630.54 966.051L1629.79 964.634L1624.7 955.051L1702.31 913.863L1663.88 1043.18L1663.42 1044.71L1664.17 1046.13L1669.26 1055.72L1625.62 1078.87H1633.98L1674.55 1057.34L1667.63 1044.29L1708.72 906.024L1619.41 953.427Z" fill="#224192" fill-opacity="0.32"/>
<path d="M1673.88 1056.06L1680.8 1069.1L1677.89 1078.88H1681.98L1684.55 1070.22L1685.01 1068.68L1684.26 1067.26L1679.17 1057.68L1756.77 1016.49L1738.24 1078.88H1742.32L1763.19 1008.65L1673.88 1056.06ZM1669.49 400.708L1580.17 448.111L1587.09 461.152L1546 599.422L1635.32 552.018L1628.4 538.977L1669.49 400.708ZM1663.07 408.547L1624.64 537.861L1624.18 539.399L1624.93 540.811L1630.02 550.395L1552.42 591.583L1590.84 462.268L1591.3 460.731L1590.55 459.314L1585.46 449.735L1663.07 408.547Z" fill="#224192" fill-opacity="0.32"/>
<path d="M1723.95 503.335L1634.64 550.738L1641.56 563.779L1600.47 702.049L1689.78 654.646L1682.86 641.605L1723.95 503.335ZM1717.54 511.174L1679.11 640.489L1678.65 642.026L1679.4 643.443L1684.49 653.022L1606.88 694.21L1645.31 564.896L1645.77 563.358L1645.02 561.945L1639.93 552.362L1717.54 511.174Z" fill="#224192" fill-opacity="0.32"/>
<path d="M1778.42 605.962L1689.1 653.366L1696.02 666.407L1654.93 804.68L1744.25 757.277L1737.33 744.232L1778.42 605.962ZM1772 613.801L1733.57 743.116L1733.12 744.653L1733.87 746.07L1738.96 755.653L1661.35 796.837L1699.78 667.523L1700.24 665.989L1699.48 664.573L1694.4 654.989L1772 613.801Z" fill="#224192" fill-opacity="0.32"/>
<path d="M1832.89 708.589L1743.57 755.993L1750.49 769.034L1709.4 907.308L1798.72 859.904L1791.8 846.859L1832.89 708.589ZM1826.47 716.429L1788.04 845.743L1787.58 847.28L1788.34 848.697L1793.42 858.281L1715.82 899.468L1754.25 770.15L1754.7 768.616L1753.95 767.2L1748.87 757.616L1826.47 716.429Z" fill="#224192" fill-opacity="0.32"/>
<path d="M1887.36 811.216L1798.04 858.62L1804.96 871.665L1763.87 1009.93L1853.19 962.531L1846.27 949.49L1887.36 811.216ZM1880.94 819.056L1842.51 948.374L1842.06 949.908L1842.8 951.324L1847.89 960.908L1770.29 1002.1L1808.71 872.781L1809.17 871.244L1808.42 869.827L1803.33 860.243L1880.94 819.056Z" fill="#224192" fill-opacity="0.32"/>
<path d="M1852.51 961.247L1859.43 974.292L1828.35 1078.87H1832.44L1863.19 975.408L1863.64 973.871L1862.89 972.454L1857.8 962.871L1918 930.923V926.49L1852.51 961.247ZM1896.98 1051L1896.52 1052.53L1897.28 1053.95L1902.36 1063.54L1873.46 1078.87H1881.81L1907.65 1065.16L1900.73 1052.12L1918 994.018V980.266L1896.98 1051ZM1848.12 305.899L1758.8 353.303L1765.72 366.344L1724.63 504.614L1813.95 457.21L1807.03 444.169L1848.12 305.899ZM1841.7 313.739L1803.27 443.053L1802.81 444.591L1803.57 446.007L1808.65 455.587L1731.05 496.775L1769.48 367.46L1769.94 365.923L1769.18 364.51L1764.1 354.926L1841.7 313.739Z" fill="#224192" fill-opacity="0.32"/>
<path d="M1902.59 408.527L1813.27 455.931L1820.19 468.972L1779.1 607.246L1868.42 559.842L1861.5 546.797L1902.59 408.527ZM1896.17 416.367L1857.74 545.681L1857.29 547.219L1858.03 548.635L1863.12 558.219L1785.52 599.406L1823.95 470.088L1824.4 468.555L1823.65 467.138L1818.56 457.554L1896.17 416.367Z" fill="#224192" fill-opacity="0.32"/>
<path d="M1867.74 558.558L1874.66 571.599L1833.57 709.873L1918 665.06V653.264L1915.96 649.424L1918 642.572V628.825L1912.21 648.308L1911.75 649.846L1912.5 651.262L1917.59 660.846L1839.98 702.034L1878.41 572.715L1878.87 571.182L1878.12 569.765L1873.03 560.182L1918 536.316V531.883L1867.74 558.558ZM1888.04 812.5L1918 796.599V792.162L1894.45 804.661L1918 725.423V711.676L1888.04 812.5ZM1393.5 680.361L1482.82 632.957L1475.89 619.912L1516.98 481.642L1427.67 529.046L1434.59 542.087L1393.5 680.361Z" fill="#224192" fill-opacity="0.32"/>
<path d="M1446.14 782.988L1535.46 735.584L1528.54 722.539L1569.63 584.27L1480.31 631.673L1487.23 644.718L1446.14 782.988ZM1502.43 885.615L1591.75 838.212L1584.83 825.171L1625.92 686.897L1536.6 734.301L1543.52 747.346L1502.43 885.615Z" fill="#224192" fill-opacity="0.32"/>
<path d="M1555.08 988.243L1644.4 940.839L1637.48 927.798L1678.57 789.528L1589.25 836.932L1596.17 849.973L1555.08 988.243ZM1645.54 939.559L1652.46 952.6L1614.94 1078.87H1633.97L1700.69 1043.47L1693.77 1030.43L1734.86 892.155L1645.54 939.559Z" fill="#224192" fill-opacity="0.32"/>
<path d="M1700.01 1042.19L1706.93 1055.23L1699.9 1078.87H1764.33L1789.32 994.783L1700.01 1042.19ZM1572.13 585.553L1661.45 538.15L1654.52 525.109L1695.61 386.835L1606.3 434.239L1613.22 447.284L1572.13 585.553Z" fill="#224192" fill-opacity="0.32"/>
<path d="M1624.78 688.181L1714.1 640.777L1707.17 627.736L1748.26 489.462L1658.95 536.866L1665.87 549.911L1624.78 688.181Z" fill="#224192" fill-opacity="0.32"/>
<path d="M1679.25 790.808L1768.56 743.404L1761.64 730.363L1802.73 592.094L1713.42 639.497L1720.34 652.538L1679.25 790.808Z" fill="#224192" fill-opacity="0.32"/>
<path d="M1733.72 893.435L1823.03 846.032L1816.11 832.991L1857.2 694.721L1767.88 742.124L1774.81 755.165L1733.72 893.435ZM1790 996.067L1879.32 948.663L1872.4 935.618L1913.49 797.348L1824.17 844.752L1831.09 857.793L1790 996.067Z" fill="#224192" fill-opacity="0.32"/>
<path d="M1878.64 947.38L1885.56 960.421L1850.36 1078.88H1881.81L1918 1059.67V926.491L1878.64 947.38ZM1750.76 490.746L1840.08 443.343L1833.16 430.302L1874.25 292.032L1784.93 339.435L1791.85 352.477L1750.76 490.746Z" fill="#224192" fill-opacity="0.32"/>
<path d="M1839.4 442.062L1846.32 455.104L1805.23 593.373L1894.55 545.97L1887.63 532.929L1918 430.723V400.348L1839.4 442.062Z" fill="#224192" fill-opacity="0.32"/>
<path d="M1893.87 544.689L1900.79 557.73L1859.7 696.004L1918 665.064V531.882L1893.87 544.689ZM1914.17 798.631L1918 796.598V785.739L1914.17 798.631ZM1906.22 408.3L1918 402.045V397.608L1912.63 400.461L1918 382.39V368.638L1906.22 408.3ZM1904.31 1062.61L1911.23 1075.65L1910.27 1078.87H1914.36L1914.98 1076.77L1915.44 1075.23L1914.69 1073.82L1909.6 1064.23L1918 1059.78V1055.34L1904.31 1062.61Z" fill="#224192" fill-opacity="0.32"/>
</svg>
