<svg width="234" height="51" viewBox="0 0 234 51" fill="none" xmlns="http://www.w3.org/2000/svg">
<path d="M165.462 22.8255C166.302 21.8441 166.721 20.6774 166.721 19.3323C166.721 18.0456 166.289 16.8686 165.421 15.8015C164.549 14.7412 163.42 13.9519 162.048 13.4269C160.668 12.9019 158.757 12.6343 156.338 12.6343H147.903V37.9305H156.338C158.757 37.9305 160.668 37.6697 162.048 37.1378C163.42 36.6128 164.552 35.8236 165.421 34.7633C166.292 33.6961 166.721 32.5192 166.721 31.2324C166.721 29.8873 166.302 28.7275 165.462 27.7392C164.614 26.7579 163.283 25.9343 161.457 25.2824C163.283 24.6304 164.614 23.8069 165.462 22.8255ZM160.085 32.7251C159.447 33.2535 158.571 33.5898 157.594 33.5898H153.582V27.6775H157.594C159.539 27.6775 161.111 28.9986 161.111 30.6285C161.111 31.4451 160.723 32.1898 160.085 32.7251ZM160.085 22.0294C159.447 22.5647 158.571 22.8976 157.594 22.8976H153.582V16.9818H157.594C159.539 16.9818 161.111 18.3098 161.111 19.9397C161.111 20.7564 160.723 21.4941 160.085 22.0294Z" fill="#224192"/>
<path d="M50.5957 37.9339H56.2781V26.703H68.5041V21.923H56.2781V17.4176H68.5041V12.6343H50.5957V37.9339Z" fill="#224192"/>
<path d="M83.441 21.7377L77.8341 12.6343H71.6885L80.5277 26.9775V37.9339H86.2101V26.9775L95.094 12.6343H88.9552L83.441 21.7377Z" fill="#224192"/>
<path d="M180.628 21.7377L175.022 12.6343H168.876L177.715 26.9775V37.9339H183.398V26.9775L192.281 12.6343H186.211L180.628 21.7377Z" fill="#224192"/>
<path d="M98.6182 17.4176H104.661V37.9339H110.347V17.4176H116.53V12.6343H98.6182V17.4176Z" fill="#224192"/>
<path d="M195.806 17.4176H201.848V37.9339H207.531V17.4176H213.718V12.6343H195.806V17.4176Z" fill="#224192"/>
<path d="M234 17.4176V12.6343H217.588V37.9339H234V33.154H223.27V26.703H234V21.923H223.27V17.4176H234Z" fill="#224192"/>
<path d="M140.107 16.3499C137.722 13.9822 134.891 12.7504 131.625 12.6543H131.206C131.028 12.6543 130.859 12.6543 130.681 12.6612C128.602 12.7401 126.649 13.3063 124.824 14.346C122.851 15.4715 121.3 17.0019 120.174 18.9337C119.121 20.7318 118.555 22.7014 118.482 24.822C118.476 24.9764 118.476 25.1308 118.476 25.2852C118.476 25.4465 118.476 25.6078 118.482 25.7622C118.589 28.9946 119.8 31.8049 122.113 34.1862C124.405 36.5539 127.263 37.8064 130.681 37.923C130.866 37.9299 131.055 37.9368 131.24 37.9368C131.374 37.9368 131.494 37.9368 131.621 37.9299C134.953 37.8441 137.791 36.6294 140.152 34.2823C142.509 31.949 143.731 29.1044 143.816 25.7588C143.823 25.6249 143.823 25.4911 143.823 25.3573C143.823 25.1754 143.816 25.0004 143.81 24.8151C143.696 21.5073 142.464 18.6901 140.107 16.3499ZM131.158 32.2441C127.294 32.2441 124.161 29.1318 124.161 25.2955C124.161 21.4592 127.294 18.347 131.158 18.347C135.022 18.347 138.148 21.4592 138.148 25.2955C138.148 29.1318 135.022 32.2441 131.158 32.2441Z" fill="#224192"/>
<path d="M37.9444 37.9444V15.8223L15.8223 37.9444H37.9444Z" fill="#224192"/>
<path d="M0 12.6481V37.9443L12.6481 50.5924V21.079L21.079 12.6481H37.9443V0H12.6481L0 12.6481Z" fill="#224192"/>
</svg>
