<svg width="31" height="31" viewBox="0 0 31 31" fill="none" xmlns="http://www.w3.org/2000/svg">
<g clip-path="url(#clip0_3_361)">
<path d="M25.5352 7.4V2.375H25.3102C21.1102 2.5625 17.6227 5.2625 15.5227 7.4L15.4102 7.5125L15.2977 7.4C13.1602 5.2625 9.71016 2.5625 5.51016 2.375H5.28516V7.4H0.410156V16.0625C0.410156 18.1625 0.485156 20.2625 0.635156 21.9875C0.772523 23.6514 1.50322 25.2106 2.69407 26.3807C3.88491 27.5509 5.4566 28.2543 7.12266 28.3625C9.78516 28.5125 12.5977 28.625 15.4102 28.625C18.2227 28.625 21.0352 28.5125 23.6977 28.325C25.3637 28.2168 26.9354 27.5134 28.1262 26.3432C29.3171 25.1731 30.0478 23.6139 30.1852 21.95C30.3352 20.225 30.4102 18.125 30.4102 16.025V7.4H25.5352ZM25.5352 16.0625C25.5352 18.05 25.4602 20 25.3102 21.575C25.1977 22.5875 24.3727 23.4125 23.3602 23.45C18.0668 23.825 12.7535 23.825 7.46016 23.45C6.44766 23.4125 5.58516 22.5875 5.51016 21.575C5.36016 20 5.28516 18.0125 5.28516 16.0625V7.4C8.81016 7.55 12.3352 11.3375 13.3852 12.8L15.4102 15.6125L17.4352 12.8C18.4852 11.3 22.0102 7.55 25.5352 7.4V16.0625Z" fill="#262626"/>
</g>
<defs>
<clipPath id="clip0_3_361">
<rect width="30" height="30" fill="white" transform="translate(0.410156 0.5)"/>
</clipPath>
</defs>
</svg>
