<svg width="182" height="119" viewBox="0 0 182 119" fill="none" xmlns="http://www.w3.org/2000/svg">
<path d="M113.389 44.9734V18.7551L86.8984 44.9734H113.389Z" fill="#224192"/>
<path d="M67.9453 14.9911V44.9733L83.0949 59.9599V24.9867L93.1916 14.9911H113.39V0H83.0949L67.9453 14.9911Z" fill="#224192"/>
<path d="M113.985 81.7709C114.821 80.8058 115.234 79.6615 115.234 78.3379C115.234 77.0741 114.807 75.916 113.943 74.8728C113.079 73.8342 111.955 73.0529 110.595 72.5428C109.225 72.0281 107.33 71.7661 104.929 71.7661H96.5596V96.6058H104.929C107.33 96.6058 109.225 96.3484 110.595 95.8291C111.955 95.3144 113.079 94.5377 113.943 93.4991C114.807 92.4513 115.234 91.2978 115.234 90.034C115.234 88.715 114.821 87.5753 113.985 86.601C113.144 85.6359 111.821 84.8317 110.009 84.1883C111.825 83.5449 113.144 82.736 113.985 81.7709ZM108.653 91.4908C108.022 92.0101 107.153 92.3364 106.183 92.3364H102.202V86.532H106.183C108.115 86.532 109.67 87.828 109.67 89.4319C109.67 90.2362 109.285 90.9669 108.653 91.4908ZM108.653 80.9897C108.022 81.5136 107.153 81.8444 106.183 81.8444H102.202V76.0355H106.183C108.115 76.0355 109.67 77.3407 109.67 78.94C109.67 79.7396 109.285 80.4611 108.653 80.9897Z" fill="#224192"/>
<path d="M0 96.6058H5.63816V85.5808H17.7736V80.884H5.63816V76.4584H17.7736V71.7662H0V96.6058Z" fill="#224192"/>
<path d="M32.5981 80.7001L27.0296 71.7661H20.9316L29.7047 85.8519V96.6058H35.3428V85.8519L44.1577 71.7661H38.0644L32.5981 80.7001Z" fill="#224192"/>
<path d="M129.037 80.7001L123.473 71.7661H117.375L126.148 85.8519V96.6058H131.786V85.8519L140.596 71.7661H134.577L129.037 80.7001Z" fill="#224192"/>
<path d="M47.6553 76.4583H53.6557V96.6058H59.2938V76.4583H65.4289V71.7661H47.6553V76.4583Z" fill="#224192"/>
<path d="M144.098 76.4583H150.093V96.6058H155.732V76.4583H161.871V71.7661H144.098V76.4583Z" fill="#224192"/>
<path d="M182 76.4583V71.7661H165.713V96.6058H182V91.9136H171.351V85.5761H182V80.884H171.351V76.4583H182Z" fill="#224192"/>
<path d="M88.8267 75.4151C86.4628 73.0896 83.653 71.881 80.4113 71.7845H79.9979C79.8214 71.7845 79.6542 71.7845 79.4778 71.7937C77.4157 71.8718 75.4744 72.4279 73.6631 73.4481C71.7032 74.5511 70.166 76.0585 69.0513 77.9519C68.0064 79.7166 67.4444 81.6514 67.3748 83.7333C67.3701 83.8849 67.3701 84.0366 67.3701 84.1882C67.3701 84.3491 67.3701 84.5053 67.3748 84.657C67.4816 87.8326 68.6798 90.59 70.9787 92.9292C73.2544 95.2546 76.0874 96.4817 79.4778 96.6012C79.6589 96.6058 79.8493 96.6149 80.0304 96.6149C80.1651 96.6149 80.2812 96.6149 80.4113 96.6057C83.718 96.523 86.5324 95.3281 88.8778 93.0257C91.2138 90.7371 92.4307 87.9383 92.5142 84.657C92.5235 84.5237 92.5235 84.395 92.5235 84.2617C92.5235 84.0825 92.5142 83.9079 92.5096 83.7287C92.3888 80.4795 91.1674 77.7129 88.8267 75.4151ZM79.9468 91.022C76.1153 91.022 73.0036 87.9659 73.0036 84.1974C73.0036 80.4289 76.1153 77.3728 79.9468 77.3728C83.7784 77.3728 86.8807 80.4289 86.8807 84.1974C86.8807 87.9659 83.7784 91.022 79.9468 91.022Z" fill="#224192"/>
<path d="M0 118.1V103.853H1.51867V116.795H9.58115V118.1H0Z" fill="#224192"/>
<path d="M28.5625 118.1V103.853H30.0812V118.1H28.5625Z" fill="#224192"/>
<path d="M51.2217 118.1V103.853H52.4756L59.0566 114.966H58.3971L64.913 103.853H66.167V118.1H64.7087V106.11H65.057L59.0519 116.285H58.3321L52.2852 106.11H52.6753V118.095H51.2217V118.1Z" fill="#224192"/>
<path d="M87.3076 118.1V103.853H88.8263V118.1H87.3076Z" fill="#224192"/>
<path d="M112.763 118.1V105.158H107.705V103.853H119.344V105.158H114.286V118.1H112.763Z" fill="#224192"/>
<path d="M139.742 116.795H148.399V118.1H138.219V103.853H148.088V105.158H139.737V116.795H139.742ZM139.58 110.223H147.187V111.505H139.58V110.223Z" fill="#224192"/>
<path d="M168.43 118.1V103.853H174.291C175.828 103.853 177.175 104.157 178.331 104.759C179.488 105.361 180.393 106.202 181.034 107.272C181.68 108.343 182 109.579 182 110.977C182 112.374 181.675 113.605 181.034 114.681C180.389 115.751 179.488 116.588 178.331 117.194C177.17 117.801 175.828 118.1 174.291 118.1H168.43ZM169.948 116.795H174.207C175.48 116.795 176.59 116.546 177.528 116.055C178.466 115.558 179.195 114.874 179.72 113.996C180.24 113.123 180.5 112.116 180.5 110.977C180.5 109.823 180.24 108.812 179.72 107.943C179.2 107.075 178.471 106.395 177.528 105.898C176.59 105.402 175.48 105.158 174.207 105.158H169.948V116.795Z" fill="#224192"/>
</svg>
