<svg width="30" height="30" viewBox="0 0 30 30" fill="none" xmlns="http://www.w3.org/2000/svg">
<path d="M24.5874 6.27359C24.5797 6.25875 24.567 6.24711 24.5516 6.24078C22.7645 5.42087 20.8787 4.83621 18.9413 4.50143C18.9237 4.49816 18.9055 4.50052 18.8893 4.50818C18.8731 4.51584 18.8598 4.5284 18.8511 4.54409C18.5944 5.01016 18.3612 5.4889 18.1527 5.97847C16.0643 5.66144 13.9399 5.66144 11.8515 5.97847C11.6416 5.48765 11.4047 5.0088 11.142 4.54409C11.133 4.52875 11.1196 4.51647 11.1035 4.50886C11.0874 4.50125 11.0694 4.49866 11.0519 4.50143C9.11422 4.83551 7.22827 5.42021 5.44148 6.24082C5.42618 6.24731 5.41328 6.25838 5.40454 6.27251C1.83131 11.6087 0.852462 16.8136 1.33265 21.9541C1.334 21.9667 1.33787 21.9789 1.34403 21.99C1.35019 22.0011 1.35852 22.0108 1.36851 22.0186C3.44917 23.5591 5.77642 24.7351 8.25093 25.4962C8.26836 25.5014 8.28697 25.5012 8.30425 25.4955C8.32154 25.4898 8.33668 25.479 8.34763 25.4645C8.87911 24.7413 9.35003 23.9756 9.75562 23.175C9.76119 23.164 9.76437 23.152 9.76495 23.1397C9.76554 23.1274 9.7635 23.1151 9.75899 23.1036C9.75448 23.0922 9.74759 23.0818 9.73877 23.0732C9.72996 23.0646 9.71942 23.058 9.70785 23.0537C8.96524 22.7696 8.2463 22.427 7.55779 22.0294C7.54528 22.022 7.53478 22.0117 7.52721 21.9993C7.51963 21.9869 7.51522 21.9729 7.51436 21.9584C7.51351 21.9439 7.51623 21.9294 7.52229 21.9163C7.52835 21.9031 7.53757 21.8916 7.54912 21.8828C7.69359 21.7746 7.83815 21.662 7.9761 21.5483C7.98836 21.5382 8.00319 21.5317 8.01893 21.5296C8.03466 21.5275 8.05068 21.5298 8.06517 21.5363C12.5759 23.5949 17.4594 23.5949 21.9167 21.5363C21.9313 21.5294 21.9474 21.5267 21.9634 21.5287C21.9794 21.5306 21.9945 21.537 22.0069 21.5472C22.1449 21.6609 22.2894 21.7746 22.435 21.8828C22.4466 21.8915 22.4559 21.9029 22.462 21.9161C22.4682 21.9292 22.471 21.9436 22.4703 21.9581C22.4695 21.9726 22.4652 21.9867 22.4577 21.9991C22.4503 22.0115 22.4398 22.0219 22.4274 22.0294C21.7404 22.4304 21.0208 22.7727 20.2763 23.0526C20.2647 23.057 20.2542 23.0638 20.2455 23.0726C20.2367 23.0813 20.2299 23.0918 20.2255 23.1033C20.221 23.1149 20.2191 23.1273 20.2198 23.1396C20.2205 23.152 20.2237 23.164 20.2294 23.175C20.6418 23.9711 21.112 24.7359 21.6363 25.4632C21.647 25.4781 21.662 25.4893 21.6794 25.4952C21.6967 25.5011 21.7155 25.5014 21.733 25.496C24.212 24.7375 26.5433 23.5615 28.6266 22.0186C28.6367 22.0112 28.6451 22.0017 28.6513 21.9908C28.6575 21.9798 28.6613 21.9677 28.6624 21.9552C29.2373 16.0122 27.7 10.8499 24.5874 6.27359ZM10.4293 18.8241C9.0712 18.8241 7.9522 17.5778 7.9522 16.0473C7.9522 14.5167 9.04949 13.2703 10.4293 13.2703C11.8198 13.2703 12.928 14.5275 12.9063 16.0472C12.9063 17.5778 11.8089 18.8241 10.4293 18.8241ZM19.5877 18.8241C18.2297 18.8241 17.1107 17.5778 17.1107 16.0473C17.1107 14.5167 18.208 13.2703 19.5877 13.2703C20.9783 13.2703 22.0865 14.5275 22.0648 16.0472C22.0648 17.5778 20.9783 18.8241 19.5877 18.8241Z" fill="black"/>
</svg>
