<svg width="31" height="31" viewBox="0 0 31 31" fill="none" xmlns="http://www.w3.org/2000/svg">
<g clip-path="url(#clip0_3_333)">
<path d="M30.0356 16.7917C28.546 9.69279 22.8273 5.42716 16.7179 4.76571V3.83341C16.7179 2.91154 15.9731 2.16675 15.0513 2.16675C14.1294 2.16675 13.3846 2.91154 13.3846 3.83341V4.76571C7.25438 5.42716 1.58771 9.69279 0.0668781 16.7917C-0.0477052 17.3178 0.509586 17.9011 1.04084 17.3855C3.74917 14.5209 6.65021 14.6563 9.30125 19.3126C9.5773 19.8074 10.0773 19.7605 10.3273 19.3126C11.3794 17.4688 12.6658 15.5001 15.0513 15.5001C18.0981 15.5001 19.645 19.0834 19.7752 19.3126C20.0252 19.7605 20.5252 19.8074 20.8013 19.3126C23.4575 14.6511 26.3794 14.5522 29.0617 17.3855C29.5981 17.9063 30.1502 17.3178 30.0356 16.7917ZM13.3846 17.8803V24.6667C13.3846 25.1251 13.0096 25.5001 12.5513 25.5001C12.145 25.5001 11.8638 25.224 11.7648 24.9428C11.4575 24.073 10.5096 23.6199 9.6398 23.9272C8.77 24.2345 8.31688 25.1876 8.62417 26.0522C9.2075 27.7136 10.7908 28.8282 12.5513 28.8282C14.8481 28.8282 16.7179 26.9584 16.7179 24.6615V17.8751C16.244 17.4636 15.6867 17.1667 15.0513 17.1667C14.4106 17.172 13.8846 17.4167 13.3846 17.8803Z" fill="#262626"/>
</g>
<defs>
<clipPath id="clip0_3_333">
<rect width="30" height="30" fill="white" transform="translate(0.0507812 0.5)"/>
</clipPath>
</defs>
</svg>
