<svg width="50" height="51" viewBox="0 0 50 51" fill="none" xmlns="http://www.w3.org/2000/svg">
<path d="M46.0869 2.76563C43.4795 3.4297 39.4326 5.54786 34.8975 9.35352C31.8779 7.64698 28.4684 6.75012 25 6.75001C13.7822 6.75001 4.6875 15.8438 4.6875 27.0625C4.6875 38.2813 13.7822 47.375 25 47.375C36.2178 47.375 45.3125 38.2803 45.3125 27.0625C45.3186 21.7806 43.2597 16.7055 39.5752 12.9209C38.9305 13.7528 38.3741 14.6496 37.915 15.5967C40.7351 18.7501 42.2944 22.832 42.2949 27.0625C42.2949 36.5996 34.5371 44.3584 25.001 44.3584C21.9977 44.3583 19.0469 43.5703 16.4434 42.0732C24.543 31.5918 31.1689 38.3848 34.4424 19.9395C35.0078 16.7539 37.1768 10.7344 46.7695 4.29688C47.5586 3.76661 47.0068 2.53126 46.0869 2.76563ZM13.7695 40.1875C11.8693 38.5688 10.343 36.557 9.29603 34.291C8.24901 32.0249 7.7062 29.5587 7.70508 27.0625C7.70508 17.5254 15.4639 9.76759 25 9.76759C27.5941 9.76659 30.1539 10.3595 32.4834 11.501C26.0391 17.5664 20.0947 26.4297 13.7695 40.1875Z" fill="black"/>
</svg>
