<svg width="30" height="30" viewBox="0 0 30 30" fill="none" xmlns="http://www.w3.org/2000/svg">
<path d="M26.9162 8.88963C26.9353 9.15611 26.9353 9.42265 26.9353 9.68914C26.9353 17.8173 20.7488 27.1828 9.44162 27.1828C5.95811 27.1828 2.72209 26.1738 0 24.4227C0.494941 24.4797 0.970781 24.4988 1.48477 24.4988C4.35908 24.4988 7.00506 23.528 9.11801 21.8719C6.41496 21.8148 4.14973 20.0445 3.36926 17.6079C3.75 17.665 4.13068 17.7031 4.53047 17.7031C5.08248 17.7031 5.63455 17.6269 6.14848 17.4937C3.33123 16.9226 1.21822 14.448 1.21822 11.4594V11.3833C2.03672 11.8402 2.98857 12.1257 3.99738 12.1637C2.34129 11.0596 1.25631 9.17515 1.25631 7.04316C1.25631 5.90105 1.56082 4.8541 2.09385 3.94039C5.12051 7.67135 9.67002 10.1078 14.7715 10.3744C14.6763 9.91754 14.6192 9.4417 14.6192 8.9658C14.6192 5.57744 17.3603 2.81732 20.7677 2.81732C22.538 2.81732 24.1369 3.5597 25.2601 4.75894C26.6496 4.49246 27.9821 3.97847 29.1623 3.27418C28.7054 4.70187 27.7346 5.90111 26.4593 6.66248C27.6966 6.52929 28.8959 6.18658 29.9999 5.71074C29.1625 6.92896 28.1154 8.01394 26.9162 8.88963Z" fill="black"/>
</svg>
