<svg width="30" height="30" viewBox="0 0 30 30" fill="none" xmlns="http://www.w3.org/2000/svg">
<path d="M8.46094 6.48102C3.78811 6.48102 0 10.2953 0 15C0 19.7047 3.78839 23.519 8.46094 23.519C13.1335 23.519 16.9219 19.705 16.9219 15C16.9219 10.295 13.134 6.48102 8.46094 6.48102ZM21.9727 6.98005C19.6362 6.98005 17.7424 10.5716 17.7424 15.0001C17.7424 19.4287 19.6365 23.0204 21.9729 23.0204C24.3094 23.0204 26.2035 19.4289 26.2035 15.0001H26.2031C26.2031 10.5703 24.3094 6.98005 21.9728 6.98005H21.9727ZM28.512 7.81541C27.6905 7.81541 27.0244 11.0323 27.0244 15.0001C27.0244 18.9679 27.69 22.1848 28.512 22.1848C29.334 22.1848 30 18.9671 30 15C30 11.0321 29.3337 7.81541 28.5121 7.81541H28.512Z" fill="black"/>
</svg>
