<svg width="40" height="41" viewBox="0 0 40 41" fill="none" xmlns="http://www.w3.org/2000/svg">
<g clip-path="url(#clip0_3_316)">
<path d="M17.4309 36.4689L13.6184 35.3626C13.2184 35.2501 12.9934 34.8314 13.1059 34.4314L21.6371 5.04387C21.7496 4.64387 22.1684 4.41887 22.5684 4.53137L26.3809 5.63762C26.7809 5.75012 27.0059 6.16887 26.8934 6.56887L18.3621 35.9564C18.2434 36.3564 17.8309 36.5876 17.4309 36.4689ZM10.3059 29.4564L13.0246 26.5564C13.3121 26.2501 13.2934 25.7626 12.9746 25.4814L7.31211 20.5001L12.9746 15.5189C13.2934 15.2376 13.3184 14.7501 13.0246 14.4439L10.3059 11.5439C10.0246 11.2439 9.54961 11.2251 9.24336 11.5126L0.237109 19.9501C-0.0816406 20.2439 -0.0816406 20.7501 0.237109 21.0439L9.24336 29.4876C9.54961 29.7751 10.0246 29.7626 10.3059 29.4564ZM30.7559 29.4939L39.7621 21.0501C40.0809 20.7564 40.0809 20.2501 39.7621 19.9564L30.7559 11.5064C30.4559 11.2251 29.9809 11.2376 29.6934 11.5376L26.9746 14.4376C26.6871 14.7439 26.7059 15.2314 27.0246 15.5126L32.6871 20.5001L27.0246 25.4814C26.7059 25.7626 26.6809 26.2501 26.9746 26.5564L29.6934 29.4564C29.9746 29.7626 30.4496 29.7751 30.7559 29.4939Z" fill="black"/>
</g>
<defs>
<clipPath id="clip0_3_316">
<rect width="40" height="40" fill="white" transform="translate(0 0.5)"/>
</clipPath>
</defs>
</svg>
