<svg width="51" height="51" viewBox="0 0 51 51" fill="none" xmlns="http://www.w3.org/2000/svg">
<path d="M3.09961 28.6666C3.09961 30.1666 3.46628 31.5499 4.19961 32.8166C4.93294 34.0833 5.93294 35.0833 7.19961 35.8166C8.46628 36.5499 9.83294 36.9166 11.3163 36.9166H29.3663C30.8496 36.9166 32.2329 36.5499 33.4996 35.8166C34.7663 35.0833 35.7829 34.0833 36.5163 32.8166C37.2496 31.5499 37.6329 30.1666 37.6329 28.6666C37.6329 27.5666 37.3996 26.4499 36.9329 25.3333C38.1996 23.7999 38.8329 21.9499 38.8329 19.8333C38.8329 18.6499 38.5996 17.5166 38.1496 16.4333C37.6996 15.3499 37.0663 14.4333 36.2829 13.6499C35.4996 12.8666 34.5829 12.2333 33.4996 11.7833C32.4163 11.3166 31.2829 11.0999 30.0996 11.0999C27.6329 11.0999 25.4829 12.0666 23.6329 13.9999C22.3496 13.2666 20.8496 12.8999 19.1329 12.8999C16.7829 12.8999 14.7163 13.6333 12.9163 15.0833C11.1163 16.5333 9.94961 18.3999 9.44961 20.6666C7.58294 21.0999 6.06628 22.0499 4.88294 23.5499C3.69961 25.0499 3.09961 26.7499 3.09961 28.6666ZM5.94961 28.6666C5.94961 27.2666 6.41628 26.0666 7.34961 25.0499C8.28294 24.0333 9.44961 23.4499 10.8496 23.2833L11.6829 23.2333C11.8829 23.2333 11.9996 23.1333 11.9996 22.9333L12.1163 22.0333C12.3496 20.2333 13.1329 18.7166 14.4663 17.5166C15.7996 16.2999 17.3663 15.6999 19.1496 15.6999C20.9829 15.6999 22.5829 16.3166 23.9329 17.5333C25.2996 18.7499 26.0496 20.2499 26.2163 22.0499L26.3329 23.0166C26.3663 23.1999 26.4829 23.2999 26.6829 23.2999H29.3663C30.8329 23.2999 32.0996 23.8333 33.1663 24.8999C34.2329 25.9666 34.7663 27.2166 34.7663 28.6833C34.7663 30.1999 34.2329 31.4833 33.1829 32.5499C32.1329 33.6166 30.8496 34.1499 29.3829 34.1499H11.3163C9.84961 34.1499 8.59961 33.6166 7.53294 32.5333C6.48294 31.4499 5.94961 30.1666 5.94961 28.6666ZM17.1163 8.2166C17.1163 8.6166 17.2496 8.9666 17.5163 9.2666L18.6163 10.3333C19.0329 10.6499 19.3829 10.7833 19.6829 10.7499C20.0329 10.7499 20.3329 10.5999 20.5996 10.3166C20.8663 10.0333 20.9996 9.68327 20.9996 9.28327C20.9996 8.88327 20.8496 8.54993 20.5663 8.29993L19.5829 7.19993C19.2829 6.93327 18.9496 6.79993 18.5663 6.79993C18.1663 6.79993 17.8163 6.93327 17.5329 7.2166C17.2496 7.48327 17.1163 7.8166 17.1163 8.2166ZM26.0163 15.5999C27.1663 14.4833 28.5329 13.9333 30.0996 13.9333C31.7496 13.9333 33.1496 14.4999 34.2996 15.6499C35.4496 16.7999 36.0329 18.1833 36.0329 19.8333C36.0329 20.8666 35.7496 21.8999 35.1829 22.8999C33.5663 21.2999 31.6329 20.4999 29.3663 20.4999H28.8329C28.4163 18.6833 27.4829 17.0499 26.0163 15.5999ZM28.7329 6.79993C28.7329 7.23327 28.8663 7.5666 29.1163 7.83327C29.3663 8.09994 29.6996 8.2166 30.0996 8.2166C30.5329 8.2166 30.8663 8.08327 31.1329 7.83327C31.3996 7.5666 31.5163 7.23327 31.5163 6.79993V3.38327C31.5163 2.98327 31.3829 2.6666 31.1163 2.39993C30.8496 2.13327 30.5163 2.0166 30.0996 2.0166C29.6996 2.0166 29.3829 2.14993 29.1163 2.39993C28.8496 2.64993 28.7329 2.98327 28.7329 3.38327V6.79993ZM37.9329 10.6166C37.9329 11.0499 38.0496 11.3833 38.2996 11.6499C38.6496 11.9166 38.9996 12.0499 39.3329 12.0499C39.6329 12.0499 39.9663 11.9166 40.3163 11.6499L42.6996 9.2666C42.9663 8.9666 43.0996 8.6166 43.0996 8.19993C43.0996 7.79993 42.9663 7.4666 42.6996 7.19993C42.4329 6.93327 42.0996 6.79993 41.7163 6.79993C41.3163 6.79993 40.9996 6.93327 40.7496 7.19993L38.2996 9.58327C38.0496 9.89994 37.9329 10.2333 37.9329 10.6166ZM39.2496 30.3499C39.2496 30.7499 39.3829 31.0999 39.6663 31.3999L40.7496 32.4499C40.9996 32.7166 41.3163 32.8499 41.7163 32.8499C42.1163 32.8499 42.4496 32.7166 42.7163 32.4333C42.9829 32.1499 43.1163 31.8166 43.1163 31.3999C43.1163 31.0333 42.9829 30.6999 42.7163 30.4333L41.6329 29.3499C41.3663 29.0833 41.0496 28.9499 40.6829 28.9499C40.2829 28.9499 39.9496 29.0833 39.6829 29.3499C39.3996 29.6166 39.2496 29.9499 39.2496 30.3499ZM41.6996 19.8333C41.6996 20.2166 41.8496 20.5333 42.1329 20.7999C42.3996 21.0666 42.7496 21.1999 43.1496 21.1999H46.5496C46.9329 21.1999 47.2496 21.0666 47.5163 20.8166C47.7829 20.5666 47.8996 20.2333 47.8996 19.8333C47.8996 19.4333 47.7663 19.0999 47.5163 18.8333C47.2663 18.5666 46.9329 18.4166 46.5496 18.4166H43.1496C42.7496 18.4166 42.4163 18.5499 42.1329 18.8333C41.8329 19.1166 41.6996 19.4499 41.6996 19.8333Z" fill="black"/>
</svg>
