<svg width="31" height="31" viewBox="0 0 31 31" fill="none" xmlns="http://www.w3.org/2000/svg">
<g clip-path="url(#clip0_3_298)">
<path d="M18.0925 17.6375L19.8425 14.6125C19.955 14.425 19.905 14.1875 19.7425 14.05L17.8925 12.6C17.93 12.325 17.955 12.0375 17.955 11.75C17.955 11.4625 17.93 11.175 17.8925 10.8875L19.7425 9.4375C19.905 9.3 19.955 9.0625 19.8425 8.875L18.0925 5.85C17.98 5.6625 17.755 5.5875 17.555 5.6625L15.38 6.5375C14.93 6.1875 14.4425 5.9 13.905 5.675L13.58 3.3625C13.559 3.2614 13.5043 3.17044 13.4248 3.10457C13.3453 3.03869 13.2457 3.00182 13.1425 3H9.64251C9.43001 3 9.24251 3.1625 9.20501 3.375L8.88001 5.6875C8.35501 5.9125 7.85501 6.2 7.40501 6.55L5.23001 5.675C5.03001 5.6 4.80501 5.675 4.69251 5.8625L2.94251 8.8875C2.83001 9.075 2.88001 9.3125 3.04251 9.45L4.89251 10.9C4.85501 11.175 4.83001 11.4625 4.83001 11.75C4.83001 12.0375 4.85501 12.325 4.89251 12.6125L3.04251 14.0625C2.88001 14.2 2.83001 14.4375 2.94251 14.625L4.69251 17.65C4.80501 17.8375 5.03001 17.9125 5.23001 17.8375L7.40501 16.9625C7.85501 17.3125 8.34251 17.6 8.88001 17.825L9.20501 20.1375C9.24251 20.3375 9.43001 20.5 9.64251 20.5H13.1425C13.355 20.5 13.5425 20.3375 13.58 20.125L13.905 17.8125C14.43 17.5875 14.93 17.3 15.38 16.95L17.555 17.825C17.755 17.9 17.98 17.825 18.0925 17.6375ZM11.3925 14.25C10.0175 14.25 8.89251 13.125 8.89251 11.75C8.89251 10.375 10.0175 9.25 11.3925 9.25C12.7675 9.25 13.8925 10.375 13.8925 11.75C13.8925 13.125 12.7675 14.25 11.3925 14.25ZM27.78 23.8375L26.58 22.9125C26.605 22.7375 26.63 22.55 26.63 22.3625C26.63 22.175 26.6175 21.9875 26.58 21.8125L27.7675 20.8875C27.8675 20.8 27.905 20.65 27.83 20.525L26.705 18.5875C26.6425 18.4625 26.4925 18.425 26.355 18.4625L24.9675 19.025C24.68 18.8 24.3675 18.6125 24.0175 18.475L23.805 17C23.8001 16.9332 23.7705 16.8706 23.722 16.8244C23.6734 16.7782 23.6095 16.7517 23.5425 16.75H21.305C21.1675 16.75 21.0425 16.85 21.03 16.9875L20.8175 18.4625C20.48 18.6125 20.155 18.7875 19.8675 19.0125L18.48 18.45C18.4163 18.426 18.3462 18.4255 18.2821 18.4483C18.218 18.4712 18.1641 18.5161 18.13 18.575L17.005 20.5125C16.9425 20.6375 16.955 20.7875 17.0675 20.875L18.255 21.8C18.2035 22.1649 18.2035 22.5351 18.255 22.9L17.0675 23.825C16.9675 23.9125 16.93 24.0625 17.005 24.1875L18.13 26.125C18.1925 26.25 18.3425 26.2875 18.48 26.25L19.8675 25.6875C20.155 25.9125 20.4675 26.1 20.8175 26.2375L21.03 27.7125C21.055 27.85 21.1675 27.95 21.305 27.95H23.5425C23.68 27.95 23.805 27.85 23.8175 27.7125L24.03 26.2375C24.3675 26.0875 24.6925 25.9125 24.9675 25.6875L26.3675 26.25C26.4925 26.3 26.6425 26.25 26.7175 26.125L27.8425 24.1875C27.9175 24.075 27.88 23.925 27.78 23.8375ZM22.4175 24.0375C21.9698 24.0373 21.5405 23.8593 21.224 23.5426C20.9075 23.2259 20.7298 22.7965 20.73 22.3488C20.7302 21.901 20.9082 21.4717 21.2249 21.1552C21.5416 20.8388 21.971 20.6611 22.4188 20.6612C22.8665 20.6614 23.2958 20.8394 23.6123 21.1561C23.9287 21.4728 24.1064 21.9023 24.1063 22.35C24.1061 22.7977 23.9281 23.227 23.6114 23.5435C23.2947 23.86 22.8652 24.0377 22.4175 24.0375Z" fill="#262626"/>
</g>
<defs>
<clipPath id="clip0_3_298">
<rect width="30" height="30" fill="white" transform="translate(0.379883 0.5)"/>
</clipPath>
</defs>
</svg>
