<svg width="45" height="35" viewBox="0 0 45 35" fill="none" xmlns="http://www.w3.org/2000/svg">
<path d="M0.0996094 26.6666C0.0996094 28.1666 0.466276 29.5499 1.19961 30.8166C1.93294 32.0833 2.93294 33.0833 4.19961 33.8166C5.46628 34.5499 6.83294 34.9166 8.31628 34.9166H26.3663C27.8496 34.9166 29.2329 34.5499 30.4996 33.8166C31.7663 33.0833 32.7829 32.0833 33.5163 30.8166C34.2496 29.5499 34.6329 28.1666 34.6329 26.6666C34.6329 25.5666 34.3996 24.4499 33.9329 23.3333C35.1996 21.7999 35.8329 19.9499 35.8329 17.8333C35.8329 16.6499 35.5996 15.5166 35.1496 14.4333C34.6996 13.3499 34.0663 12.4333 33.2829 11.6499C32.4996 10.8666 31.5829 10.2333 30.4996 9.78327C29.4163 9.3166 28.2829 9.09994 27.0996 9.09994C24.6329 9.09994 22.4829 10.0666 20.6329 11.9999C19.3496 11.2666 17.8496 10.8999 16.1329 10.8999C13.7829 10.8999 11.7163 11.6333 9.91628 13.0833C8.11628 14.5333 6.94961 16.3999 6.44961 18.6666C4.58294 19.0999 3.06628 20.0499 1.88294 21.5499C0.69961 23.0499 0.0996094 24.7499 0.0996094 26.6666ZM2.94961 26.6666C2.94961 25.2666 3.41628 24.0666 4.34961 23.0499C5.28294 22.0333 6.44961 21.4499 7.84961 21.2833L8.68294 21.2333C8.88294 21.2333 8.99961 21.1333 8.99961 20.9333L9.11628 20.0333C9.34961 18.2333 10.1329 16.7166 11.4663 15.5166C12.7996 14.2999 14.3663 13.6999 16.1496 13.6999C17.9829 13.6999 19.5829 14.3166 20.9329 15.5333C22.2996 16.7499 23.0496 18.2499 23.2163 20.0499L23.3329 21.0166C23.3663 21.1999 23.4829 21.2999 23.6829 21.2999H26.3663C27.8329 21.2999 29.0996 21.8333 30.1663 22.8999C31.2329 23.9666 31.7663 25.2166 31.7663 26.6833C31.7663 28.1999 31.2329 29.4833 30.1829 30.5499C29.1329 31.6166 27.8496 32.1499 26.3829 32.1499H8.31628C6.84961 32.1499 5.59961 31.6166 4.53294 30.5333C3.48294 29.4499 2.94961 28.1666 2.94961 26.6666ZM14.1163 6.2166C14.1163 6.6166 14.2496 6.9666 14.5163 7.2666L15.6163 8.33327C16.0329 8.64994 16.3829 8.78327 16.6829 8.74994C17.0329 8.74994 17.3329 8.59994 17.5996 8.3166C17.8663 8.03327 17.9996 7.68327 17.9996 7.28327C17.9996 6.88327 17.8496 6.54993 17.5663 6.29993L16.5829 5.19993C16.2829 4.93327 15.9496 4.79993 15.5663 4.79993C15.1663 4.79993 14.8163 4.93327 14.5329 5.2166C14.2496 5.48327 14.1163 5.8166 14.1163 6.2166ZM23.0163 13.5999C24.1663 12.4833 25.5329 11.9333 27.0996 11.9333C28.7496 11.9333 30.1496 12.4999 31.2996 13.6499C32.4496 14.7999 33.0329 16.1833 33.0329 17.8333C33.0329 18.8666 32.7496 19.8999 32.1829 20.8999C30.5663 19.2999 28.6329 18.4999 26.3663 18.4999H25.8329C25.4163 16.6833 24.4829 15.0499 23.0163 13.5999ZM25.7329 4.79993C25.7329 5.23327 25.8663 5.5666 26.1163 5.83327C26.3663 6.09994 26.6996 6.2166 27.0996 6.2166C27.5329 6.2166 27.8663 6.08327 28.1329 5.83327C28.3996 5.5666 28.5163 5.23327 28.5163 4.79993V1.38327C28.5163 0.983268 28.3829 0.666602 28.1163 0.399935C27.8496 0.133268 27.5163 0.0166016 27.0996 0.0166016C26.6996 0.0166016 26.3829 0.149935 26.1163 0.399935C25.8496 0.649935 25.7329 0.983268 25.7329 1.38327V4.79993ZM34.9329 8.6166C34.9329 9.04994 35.0496 9.38327 35.2996 9.64994C35.6496 9.9166 35.9996 10.0499 36.3329 10.0499C36.6329 10.0499 36.9663 9.9166 37.3163 9.64994L39.6996 7.2666C39.9663 6.9666 40.0996 6.6166 40.0996 6.19993C40.0996 5.79993 39.9663 5.4666 39.6996 5.19993C39.4329 4.93327 39.0996 4.79993 38.7163 4.79993C38.3163 4.79993 37.9996 4.93327 37.7496 5.19993L35.2996 7.58327C35.0496 7.89994 34.9329 8.23327 34.9329 8.6166ZM36.2496 28.3499C36.2496 28.7499 36.3829 29.0999 36.6663 29.3999L37.7496 30.4499C37.9996 30.7166 38.3163 30.8499 38.7163 30.8499C39.1163 30.8499 39.4496 30.7166 39.7163 30.4333C39.9829 30.1499 40.1163 29.8166 40.1163 29.3999C40.1163 29.0333 39.9829 28.6999 39.7163 28.4333L38.6329 27.3499C38.3663 27.0833 38.0496 26.9499 37.6829 26.9499C37.2829 26.9499 36.9496 27.0833 36.6829 27.3499C36.3996 27.6166 36.2496 27.9499 36.2496 28.3499ZM38.6996 17.8333C38.6996 18.2166 38.8496 18.5333 39.1329 18.7999C39.3996 19.0666 39.7496 19.1999 40.1496 19.1999H43.5496C43.9329 19.1999 44.2496 19.0666 44.5163 18.8166C44.7829 18.5666 44.8996 18.2333 44.8996 17.8333C44.8996 17.4333 44.7663 17.0999 44.5163 16.8333C44.2663 16.5666 43.9329 16.4166 43.5496 16.4166H40.1496C39.7496 16.4166 39.4163 16.5499 39.1329 16.8333C38.8329 17.1166 38.6996 17.4499 38.6996 17.8333Z" fill="black"/>
</svg>
