<svg width="45" height="36" viewBox="0 0 45 36" fill="none" xmlns="http://www.w3.org/2000/svg">
<path d="M0.100098 27.1666C0.100098 28.6666 0.466764 30.0499 1.2001 31.3166C1.93343 32.5833 2.93343 33.5833 4.2001 34.3166C5.46676 35.0499 6.83343 35.4166 8.31676 35.4166H26.3668C27.8501 35.4166 29.2334 35.0499 30.5001 34.3166C31.7668 33.5833 32.7834 32.5833 33.5168 31.3166C34.2501 30.0499 34.6334 28.6666 34.6334 27.1666C34.6334 26.0666 34.4001 24.9499 33.9334 23.8333C35.2001 22.2999 35.8334 20.4499 35.8334 18.3333C35.8334 17.1499 35.6001 16.0166 35.1501 14.9333C34.7001 13.8499 34.0668 12.9333 33.2834 12.1499C32.5001 11.3666 31.5834 10.7333 30.5001 10.2833C29.4168 9.8166 28.2834 9.59994 27.1001 9.59994C24.6334 9.59994 22.4834 10.5666 20.6334 12.4999C19.3501 11.7666 17.8501 11.3999 16.1334 11.3999C13.7834 11.3999 11.7168 12.1333 9.91676 13.5833C8.11676 15.0333 6.9501 16.8999 6.4501 19.1666C4.58343 19.5999 3.06676 20.5499 1.88343 22.0499C0.700098 23.5499 0.100098 25.2499 0.100098 27.1666ZM2.9501 27.1666C2.9501 25.7666 3.41676 24.5666 4.3501 23.5499C5.28343 22.5333 6.4501 21.9499 7.8501 21.7833L8.68343 21.7333C8.88343 21.7333 9.0001 21.6333 9.0001 21.4333L9.11676 20.5333C9.3501 18.7333 10.1334 17.2166 11.4668 16.0166C12.8001 14.7999 14.3668 14.1999 16.1501 14.1999C17.9834 14.1999 19.5834 14.8166 20.9334 16.0333C22.3001 17.2499 23.0501 18.7499 23.2168 20.5499L23.3334 21.5166C23.3668 21.6999 23.4834 21.7999 23.6834 21.7999H26.3668C27.8334 21.7999 29.1001 22.3333 30.1668 23.3999C31.2334 24.4666 31.7668 25.7166 31.7668 27.1833C31.7668 28.6999 31.2334 29.9833 30.1834 31.0499C29.1334 32.1166 27.8501 32.6499 26.3834 32.6499H8.31676C6.8501 32.6499 5.6001 32.1166 4.53343 31.0333C3.48343 29.9499 2.9501 28.6666 2.9501 27.1666ZM14.1168 6.7166C14.1168 7.1166 14.2501 7.4666 14.5168 7.7666L15.6168 8.83327C16.0334 9.14994 16.3834 9.28327 16.6834 9.24994C17.0334 9.24994 17.3334 9.09994 17.6001 8.8166C17.8668 8.53327 18.0001 8.18327 18.0001 7.78327C18.0001 7.38327 17.8501 7.04993 17.5668 6.79993L16.5834 5.69993C16.2834 5.43327 15.9501 5.29993 15.5668 5.29993C15.1668 5.29993 14.8168 5.43327 14.5334 5.7166C14.2501 5.98327 14.1168 6.3166 14.1168 6.7166ZM23.0168 14.0999C24.1668 12.9833 25.5334 12.4333 27.1001 12.4333C28.7501 12.4333 30.1501 12.9999 31.3001 14.1499C32.4501 15.2999 33.0334 16.6833 33.0334 18.3333C33.0334 19.3666 32.7501 20.3999 32.1834 21.3999C30.5668 19.7999 28.6334 18.9999 26.3668 18.9999H25.8334C25.4168 17.1833 24.4834 15.5499 23.0168 14.0999ZM25.7334 5.29993C25.7334 5.73327 25.8668 6.0666 26.1168 6.33327C26.3668 6.59994 26.7001 6.7166 27.1001 6.7166C27.5334 6.7166 27.8668 6.58327 28.1334 6.33327C28.4001 6.0666 28.5168 5.73327 28.5168 5.29993V1.88327C28.5168 1.48327 28.3834 1.1666 28.1168 0.899935C27.8501 0.633268 27.5168 0.516602 27.1001 0.516602C26.7001 0.516602 26.3834 0.649935 26.1168 0.899935C25.8501 1.14993 25.7334 1.48327 25.7334 1.88327V5.29993ZM34.9334 9.1166C34.9334 9.54994 35.0501 9.88327 35.3001 10.1499C35.6501 10.4166 36.0001 10.5499 36.3334 10.5499C36.6334 10.5499 36.9668 10.4166 37.3168 10.1499L39.7001 7.7666C39.9668 7.4666 40.1001 7.1166 40.1001 6.69993C40.1001 6.29993 39.9668 5.9666 39.7001 5.69993C39.4334 5.43327 39.1001 5.29993 38.7168 5.29993C38.3168 5.29993 38.0001 5.43327 37.7501 5.69993L35.3001 8.08327C35.0501 8.39994 34.9334 8.73327 34.9334 9.1166ZM36.2501 28.8499C36.2501 29.2499 36.3834 29.5999 36.6668 29.8999L37.7501 30.9499C38.0001 31.2166 38.3168 31.3499 38.7168 31.3499C39.1168 31.3499 39.4501 31.2166 39.7168 30.9333C39.9834 30.6499 40.1168 30.3166 40.1168 29.8999C40.1168 29.5333 39.9834 29.1999 39.7168 28.9333L38.6334 27.8499C38.3668 27.5833 38.0501 27.4499 37.6834 27.4499C37.2834 27.4499 36.9501 27.5833 36.6834 27.8499C36.4001 28.1166 36.2501 28.4499 36.2501 28.8499ZM38.7001 18.3333C38.7001 18.7166 38.8501 19.0333 39.1334 19.2999C39.4001 19.5666 39.7501 19.6999 40.1501 19.6999H43.5501C43.9334 19.6999 44.2501 19.5666 44.5168 19.3166C44.7834 19.0666 44.9001 18.7333 44.9001 18.3333C44.9001 17.9333 44.7668 17.5999 44.5168 17.3333C44.2668 17.0666 43.9334 16.9166 43.5501 16.9166H40.1501C39.7501 16.9166 39.4168 17.0499 39.1334 17.3333C38.8334 17.6166 38.7001 17.9499 38.7001 18.3333Z" fill="white"/>
</svg>
