<svg width="40" height="33" viewBox="0 0 40 33" fill="none" xmlns="http://www.w3.org/2000/svg">
<path d="M17.4309 32.4689L13.6184 31.3626C13.2184 31.2501 12.9934 30.8314 13.1059 30.4314L21.6371 1.04387C21.7496 0.643868 22.1684 0.418868 22.5684 0.531368L26.3809 1.63762C26.7809 1.75012 27.0059 2.16887 26.8934 2.56887L18.3621 31.9564C18.2434 32.3564 17.8309 32.5876 17.4309 32.4689ZM10.3059 25.4564L13.0246 22.5564C13.3121 22.2501 13.2934 21.7626 12.9746 21.4814L7.31211 16.5001L12.9746 11.5189C13.2934 11.2376 13.3184 10.7501 13.0246 10.4439L10.3059 7.54387C10.0246 7.24387 9.54961 7.22512 9.24336 7.51262L0.237109 15.9501C-0.0816406 16.2439 -0.0816406 16.7501 0.237109 17.0439L9.24336 25.4876C9.54961 25.7751 10.0246 25.7626 10.3059 25.4564ZM30.7559 25.4939L39.7621 17.0501C40.0809 16.7564 40.0809 16.2501 39.7621 15.9564L30.7559 7.50637C30.4559 7.22512 29.9809 7.23762 29.6934 7.53762L26.9746 10.4376C26.6871 10.7439 26.7059 11.2314 27.0246 11.5126L32.6871 16.5001L27.0246 21.4814C26.7059 21.7626 26.6809 22.2501 26.9746 22.5564L29.6934 25.4564C29.9746 25.7626 30.4496 25.7751 30.7559 25.4939Z" fill="black"/>
</svg>
