<svg width="31" height="31" viewBox="0 0 31 31" fill="none" xmlns="http://www.w3.org/2000/svg">
<path d="M22.002 24.8668V4.71875C22.0009 4.34612 21.8524 3.98907 21.5889 3.72558C21.3254 3.46209 20.9683 3.31358 20.5957 3.3125H4.6582C4.28558 3.31358 3.92852 3.46209 3.66503 3.72558C3.40154 3.98907 3.25304 4.34612 3.25195 4.71875V25.3438C3.25381 25.9648 3.50133 26.5598 3.94047 26.999C4.37961 27.4381 4.97467 27.6856 5.5957 27.6875H24.8145" stroke="#262626" stroke-width="1.875" stroke-linejoin="round"/>
<path d="M24.8145 27.6875C24.0685 27.6875 23.3532 27.3912 22.8257 26.8637C22.2983 26.3363 22.002 25.6209 22.002 24.875V8H26.2207C26.5937 8 26.9513 8.14816 27.2151 8.41188C27.4788 8.6756 27.627 9.03329 27.627 9.40625V24.875C27.627 25.6209 27.3306 26.3363 26.8032 26.8637C26.2757 27.3912 25.5604 27.6875 24.8145 27.6875Z" stroke="#262626" stroke-width="1.875" stroke-linejoin="round"/>
<path d="M14.502 8H18.252M14.502 11.75H18.252M7.00195 15.5H18.252M7.00195 19.25H18.252M7.00195 23H18.252" stroke="#262626" stroke-width="1.875" stroke-linecap="round" stroke-linejoin="round"/>
<path d="M10.752 12.6875H7.00195C6.75331 12.6875 6.51486 12.5887 6.33904 12.4129C6.16323 12.2371 6.06445 11.9986 6.06445 11.75V8C6.06445 7.75136 6.16323 7.5129 6.33904 7.33709C6.51486 7.16127 6.75331 7.0625 7.00195 7.0625H10.752C11.0006 7.0625 11.2391 7.16127 11.4149 7.33709C11.5907 7.5129 11.6895 7.75136 11.6895 8V11.75C11.6895 11.9986 11.5907 12.2371 11.4149 12.4129C11.2391 12.5887 11.0006 12.6875 10.752 12.6875Z" fill="#262626"/>
</svg>
