<svg width="31" height="31" viewBox="0 0 31 31" fill="none" xmlns="http://www.w3.org/2000/svg">
<path d="M22.0024 24.8668V4.71875C22.0014 4.34612 21.8529 3.98907 21.5894 3.72558C21.3259 3.46209 20.9688 3.31358 20.5962 3.3125H4.65869C4.28606 3.31358 3.92901 3.46209 3.66552 3.72558C3.40203 3.98907 3.25352 4.34612 3.25244 4.71875V25.3438C3.2543 25.9648 3.50182 26.5598 3.94096 26.999C4.3801 27.4381 4.97516 27.6856 5.59619 27.6875H24.8149" stroke="#D4D4D4" stroke-width="1.875" stroke-linejoin="round"/>
<path d="M24.8149 27.6875C24.069 27.6875 23.3536 27.3912 22.8262 26.8637C22.2988 26.3363 22.0024 25.6209 22.0024 24.875V8H26.2212C26.5942 8 26.9518 8.14816 27.2156 8.41188C27.4793 8.6756 27.6274 9.03329 27.6274 9.40625V24.875C27.6274 25.6209 27.3311 26.3363 26.8037 26.8637C26.2762 27.3912 25.5609 27.6875 24.8149 27.6875Z" stroke="#D4D4D4" stroke-width="1.875" stroke-linejoin="round"/>
<path d="M14.5024 8H18.2524M14.5024 11.75H18.2524M7.00244 15.5H18.2524M7.00244 19.25H18.2524M7.00244 23H18.2524" stroke="#D4D4D4" stroke-width="1.875" stroke-linecap="round" stroke-linejoin="round"/>
<path d="M10.7524 12.6875H7.00244C6.7538 12.6875 6.51534 12.5887 6.33953 12.4129C6.16371 12.2371 6.06494 11.9986 6.06494 11.75V8C6.06494 7.75136 6.16371 7.5129 6.33953 7.33709C6.51534 7.16127 6.7538 7.0625 7.00244 7.0625H10.7524C11.0011 7.0625 11.2395 7.16127 11.4154 7.33709C11.5912 7.5129 11.6899 7.75136 11.6899 8V11.75C11.6899 11.9986 11.5912 12.2371 11.4154 12.4129C11.2395 12.5887 11.0011 12.6875 10.7524 12.6875Z" fill="#D4D4D4"/>
</svg>
